<?xml version="1.0" encoding="utf-8"?>
<svg id="Layer_1" data-name="Layer 1" viewBox="0 0 618.3 426.4" width="70px" height="70px" xmlns="http://www.w3.org/2000/svg" xmlns:xlink="http://www.w3.org/1999/xlink">
  <defs>
    <style>
            .cls-1{fill:#1d6477;}.cls-2{fill:url(#linear-gradient);}.cls-3{fill:url(#linear-gradient-2);}.cls-4{fill:url(#linear-gradient-3);}.cls-11,.cls-14,.cls-15,.cls-5,.cls-6{fill:#fff;}.cls-11,.cls-15,.cls-5{stroke-miterlimit:10;}.cls-15,.cls-5{stroke-width:5px;}.cls-5{stroke:url(#linear-gradient-4);}.cls-6{isolation:isolate;font-size:66.96px;font-family:BahijTheSansArabic-Bold,
            Bahij
            TheSansArabic;font-weight:700;}.cls-7{letter-spacing:-0.03em;}.cls-8{letter-spacing:-0.04em;}.cls-9{letter-spacing:-0.05em;}.cls-10{letter-spacing:0em;}.cls-11{stroke:#fff;stroke-width:0.5px;}.cls-12{fill:url(#linear-gradient-5);}.cls-13{fill:url(#linear-gradient-6);}.cls-15{stroke:url(#linear-gradient-7);}
        </style>
    <linearGradient id="linear-gradient" x1="520.47" y1="213.5" x2="520.75" y2="213.5" gradientTransform="matrix(1.234365, 0, 0, -1.198767, -69.494766, 465.26133)" gradientUnits="userSpaceOnUse">
      <stop offset="0" stop-color="#1f2252"/>
      <stop offset="1" stop-color="#1e204f"/>
    </linearGradient>
    <linearGradient id="linear-gradient-2" x1="240.7" y1="203.3" x2="553.7" y2="203.3" gradientTransform="matrix(1.521686, 0, 0, -1.198767, -85.670876, 465.26133)" xlink:href="#linear-gradient"/>
    <linearGradient id="linear-gradient-3" x1="496.89" y1="-1415.59" x2="997.29" y2="-1415.59" gradientTransform="matrix(1.234365, 0, 0, -1.198767, -613.343933, -1472.533714)" xlink:href="#linear-gradient"/>
    <linearGradient id="linear-gradient-4" x1="145.9" y1="70.3" x2="172.1" y2="70.3" gradientTransform="matrix(1.234365, 0, 0, 1.198767, -69.494766, -47.810978)" xlink:href="#linear-gradient"/>
    <linearGradient id="linear-gradient-5" x1="373.4" y1="268.8" x2="532.97" y2="268.8" gradientTransform="matrix(1.521686, 0, 0, -1.198767, -85.670876, 465.26133)" xlink:href="#linear-gradient"/>
    <linearGradient id="linear-gradient-6" x1="336" y1="201" x2="556.8" y2="201" gradientTransform="matrix(1.521686, 0, 0, -1.198767, -85.670876, 465.26133)" xlink:href="#linear-gradient"/>
    <linearGradient id="linear-gradient-7" x1="456.8" y1="70.3" x2="483" y2="70.3" gradientTransform="matrix(1.234365, 0, 0, 1.198767, -69.494766, -47.810978)" xlink:href="#linear-gradient"/>
  </defs>
  <polygon class="cls-1" points="394.257 62.355 434.62 127.088 462.146 141.953 493.623 162.332 508.312 128.647 497.449 108.987 474.49 81.056 431.781 48.929 394.257 62.355"/>
  <path class="cls-2" d="M 572.993 209.923 L 573.239 208.725 Z" />
  <polygon class="cls-3" points="510.039 117.019 503.251 118.817 477.329 132.603 409.81 96.999 288.101 134.041 255.02 140.275 290.323 185.109 284.521 207.286 227.617 221.072 291.681 278.733 320.565 317.453 377.222 399.568 572.869 210.043 572.993 209.923 573.239 208.725 577.189 192.661 613.973 43.534 510.039 117.019" />
  <path class="cls-4" d="M 541.146 42.575 L 33.451 42.575 C 29.979 42.55 26.537 43.202 23.329 44.493 C 9.752 49.648 0 64.753 0 82.614 L 0 366.243 C 0 388.3 15.06 406.281 33.451 406.281 L 377.222 406.281 C 376.574 405.713 375.956 405.113 375.371 404.483 C 316.738 346.463 258.147 288.443 199.596 230.422 L 186.636 217.595 C 185.648 216.636 184.538 215.078 184.784 214.119 C 185.032 213.16 186.76 212.321 187.993 211.961 L 200.831 208.605 C 223.42 202.611 245.968 196.617 268.475 190.623 C 268.845 190.503 269.339 190.383 270.82 190.024 C 266.499 185.948 262.673 182.472 259.094 178.875 C 244.281 164.25 229.345 149.505 214.533 134.761 C 213.546 133.802 212.311 132.123 212.681 131.404 C 213.504 130.257 214.735 129.445 216.138 129.126 L 217.989 128.647 C 249.959 120.016 282.052 111.505 314.023 103.113 L 322.169 100.955 C 355.497 92.084 388.826 83.573 422.03 74.343 C 424.25 73.605 426.621 73.399 428.942 73.743 C 431.658 74.223 434.003 75.781 436.471 78.299 C 456.468 98.438 476.835 118.337 497.079 138.357 L 508.312 130.445 L 500.289 122.413 C 501.152 121.814 502.14 120.975 503.251 120.256 L 541.146 94.003 C 565.339 77.22 589.657 60.437 613.85 43.654 C 614.837 42.935 616.319 42.935 617.677 42.575 Z" />
  <path class="cls-5" d="M 126.769 0.019 C 119.526 -0.022 113.644 5.692 113.685 12.726 L 113.685 60.197 C 113.685 69.979 124.588 76.093 133.312 71.202 C 137.36 68.932 139.854 64.737 139.854 60.197 L 139.854 60.197 L 139.854 12.726 C 139.895 5.692 134.013 -0.022 126.769 0.019 Z" />
  <text class="cls-6" style="white-space: pre;" transform="matrix(1.234365, 0, 0, 1.198767, 13.516327, 310.404602)" >IAU<tspan x="0" dy="1em">​</tspan></text>
  <text class="cls-6" style="white-space: pre;" transform="matrix(1.234365, 0, 0, 1.198767, 13.195389, 383.913025)" >TABLER</text>
  <rect class="cls-11" y="211.122" width="184.784" height="0.24" />
  <rect class="cls-11" y="126.969" width="217.989" height="0.12"/>
  <polygon class="cls-11" points="92.207 211.242 92.207 42.575 92.207 42.575 92.207 211.242"/>
  <polygon class="cls-11" points="190.956 211.242 190.956 42.575 190.956 42.575 190.956 211.242"/>
  <polygon class="cls-12" points="567.438 177.437 523.618 86.091 428.572 62.235 394.257 70.027 391.417 96.88 476.835 162.332 543.861 223.829 558.304 209.923 567.438 177.437" />
  <polyline class="cls-1" points="377.222 399.448 362.533 399.448 371.421 390.937" />
  <polygon class="cls-1" points="602.9879760742188 42.57500076293945 601.260009765625 55.402000427246094 613.3560180664062 45.93199920654297 614.2520141601562 42.56999969482422 608.010009765625 42.56999969482422"/>
  <polygon class="cls-11" points="299.827 139.915 299.827 42.815 299.827 42.815 299.827 139.915" />
  <polygon class="cls-11" points="413.512 116.18 413.512 42.575 413.512 42.575 413.512 116.18" />
  <polygon class="cls-11" points="510.657 116.18 510.657 42.815 510.657 42.815 510.657 116.18"/>
  <rect class="cls-11" x="434.62" y="126.849" width="132.818" height="0.12"/>
  <polygon class="cls-13" points="377.22198486328125 406.1619873046875 579.4110107421875 211.36199951171875 617.6900024414062 42.56999969482422 578.0800170898438 42.65399932861328 345.25201416015625 399.447998046875 377.22198486328125 406.1619873046875" />
  <path class="cls-14" d="M 442.643 187.386 C 441.996 189.029 442.551 190.889 444.001 191.942 C 449.309 196.977 454.617 202.131 459.801 207.286 C 464.491 211.841 469.059 216.397 474.12 221.431 C 476.835 211.721 479.428 202.491 482.143 192.661 L 530.53 239.293 L 558.304 212.441 C 557.81 211.961 557.193 211.242 556.576 210.643 C 537.689 192.421 518.845 174.2 500.042 155.979 C 494.117 150.225 488.315 144.59 482.39 138.956 L 459.431 116.659 C 446.841 104.432 434.25 92.324 421.906 79.977 C 419.314 77.46 417.092 76.021 414.377 75.542 C 412.057 75.197 409.685 75.404 407.464 76.141 C 392.528 80.217 377.469 84.173 362.533 88.009 L 362.409 88.009 C 344.142 92.804 325.873 97.479 307.604 102.154 L 299.457 104.312 C 290.2 106.709 280.819 109.107 271.561 111.624 C 248.848 117.498 226.136 123.492 203.3 129.366 L 201.449 129.846 C 200.066 130.137 198.838 130.903 197.992 132.003 C 197.622 132.723 198.857 134.401 199.844 135.36 C 214.656 149.865 229.51 164.29 244.404 178.635 C 248.107 182.232 251.934 185.588 256.131 189.544 C 254.65 189.904 254.279 190.024 253.786 190.144 C 231.196 196.018 208.649 201.892 186.142 207.766 L 173.429 211.122 C 172.194 211.482 170.466 212.321 170.219 213.16 C 169.972 213.999 171.084 215.677 172.071 216.517 L 185.032 229.104 C 243.54 286.045 302.131 342.986 360.805 399.928 C 361.383 400.526 362.002 401.087 362.657 401.606 L 390.677 374.394 C 389.936 373.795 388.826 372.956 387.961 372.117 L 248.107 236.296 C 245.145 233.419 245.392 231.981 249.589 230.902 C 261.562 227.785 273.535 224.788 285.386 221.551 C 287.141 220.926 289.11 221.514 290.2 222.99 L 291.558 224.428 C 330.44 262.309 369.404 300.19 408.452 338.072 C 411.907 341.428 415.118 344.904 418.204 348.021 L 446.593 320.33 L 332.414 209.564 C 332.918 209.292 333.458 209.09 334.02 208.964 C 347.351 205.488 360.682 202.011 374.012 198.655 C 375.333 198.409 376.697 198.763 377.716 199.614 C 393.639 214.838 409.192 230.182 424.992 245.287 C 425.995 246.16 426.338 247.543 425.856 248.763 C 423.51 257.035 421.289 265.306 418.944 273.458 C 418.443 274.775 418.836 276.256 419.931 277.174 C 429.559 286.525 439.188 295.875 448.938 305.225 C 449.463 305.692 450.043 306.094 450.667 306.424 C 453.259 296.834 455.851 287.723 458.444 278.493 L 459.431 278.013 L 474.366 293.477 L 502.88 265.906 C 501.902 265.418 500.99 264.815 500.165 264.108 C 463.752 228.864 427.378 193.581 391.047 158.256 C 389.207 156.135 386.192 155.367 383.518 156.338 C 362.533 161.853 341.672 167.367 320.688 172.762 C 314.393 174.44 308.098 175.998 301.803 177.676 C 300.619 177.874 299.405 177.569 298.47 176.837 C 290.693 169.405 283.041 161.973 275.387 154.54 C 273.165 152.263 273.535 150.704 276.621 149.865 L 291.681 145.909 L 315.874 139.676 L 401.293 117.378 C 403.098 116.766 405.106 117.29 406.353 118.697 L 448.569 159.695 C 449.716 160.682 450.153 162.235 449.679 163.651 C 447.087 171.563 444.989 179.475 442.643 187.386 Z"/>
  <path class="cls-14" d="M 602.988 44.973 C 601.753 45.333 600.148 45.333 599.161 46.052 C 580.028 58.999 560.772 72.065 541.639 85.132 C 541.571 85.132 541.516 85.186 541.516 85.252 C 536.456 88.728 531.394 92.084 526.334 95.561 L 488.562 121.215 C 487.451 121.934 486.464 122.653 485.6 123.252 L 493.746 131.164 L 513.866 150.704 C 514.483 150.225 515.472 149.745 516.336 149.146 C 522.137 145.31 527.939 141.234 533.74 137.398 C 534.603 136.799 535.962 137.038 537.196 136.799 C 537.495 137.81 537.62 138.864 537.566 139.915 C 535.467 148.187 533.246 156.458 530.777 164.61 C 530.168 166.131 530.612 167.862 531.888 168.925 L 560.031 196.257 C 560.679 196.912 561.381 197.514 562.13 198.056 L 562.871 196.257 C 576.448 147.108 589.986 97.958 603.481 48.809 C 603.728 47.61 603.111 46.292 602.988 44.973 Z" />
  <path class="cls-15" d="M 523.618 12.726 C 523.618 2.944 512.714 -3.17 503.992 1.721 C 499.943 3.992 497.449 8.186 497.449 12.726 L 497.449 42.575 L 497.449 42.575 L 497.449 60.197 C 497.449 69.979 508.353 76.093 517.076 71.202 C 521.124 68.932 523.618 64.737 523.618 60.197 L 523.618 60.197 L 523.618 42.575 L 523.618 42.575 Z"/>
</svg>