<svg id="Layer_1" data-name="Layer 1" xmlns="http://www.w3.org/2000/svg" xmlns:xlink="http://www.w3.org/1999/xlink"
     viewBox="0 0 618.32 426.38" width="80px" height="80px">
    <defs>
        <style>
            .cls-1{fill:#1d6477;}.cls-2{fill:url(#linear-gradient);}.cls-3{fill:url(#linear-gradient-2);}.cls-4{fill:url(#linear-gradient-3);}.cls-5,.cls-6,.cls-7{fill:#65eae6;}.cls-6{font-size:66.96px;font-family:BahijTheSansArabic-Bold,
            Bahij
            TheSansArabic;font-weight:700;}.cls-7{stroke:#65eae6;stroke-miterlimit:10;stroke-width:0.5px;}.cls-8{fill:url(#linear-gradient-4);}.cls-9{fill:url(#linear-gradient-5);}
        </style>
        <linearGradient id="linear-gradient" x1="520.47" y1="214.49" x2="520.75" y2="214.49"
                        gradientUnits="userSpaceOnUse">
            <stop offset="0" stop-color="#1f2252"/>
            <stop offset="1" stop-color="#1e204f"/>
        </linearGradient>
        <linearGradient id="linear-gradient-2" x1="240.73" y1="224.69" x2="553.72" y2="224.69"
                        xlink:href="#linear-gradient"/>
        <linearGradient id="linear-gradient-3" x1="496.86" y1="1843.53" x2="997.38" y2="1843.53"
                        gradientTransform="translate(-440.59 -1616.49)" xlink:href="#linear-gradient"/>
        <linearGradient id="linear-gradient-4" x1="373.36" y1="159.21" x2="532.93" y2="159.21"
                        xlink:href="#linear-gradient"/>
        <linearGradient id="linear-gradient-5" x1="335.97" y1="227.04" x2="556.79" y2="227.04"
                        xlink:href="#linear-gradient"/>
    </defs>
    <polygon class="cls-1"
             points="375.7 91.88 408.43 145.9 430.72 158.27 456.2 175.34 468.14 147.18 459.32 130.76 440.68 107.53 406.06 80.72 375.7 91.88"/>
    <polygon class="cls-2" points="520.5 215 520.75 213.98 520.47 214.97 520.5 215"/>
    <polygon class="cls-3"
             points="469.48 137.54 463.96 138.97 443.04 150.52 388.32 120.77 289.73 151.69 262.9 156.94 291.48 194.27 286.77 212.78 240.73 224.28 292.65 272.44 315.98 304.68 361.9 373.17 520.45 215.06 520.47 214.97 520.75 213.98 523.95 200.59 553.72 76.21 469.48 137.54"/>
    <path class="cls-4"
          d="M494.74,75.37H83.41a22.48,22.48,0,0,0-8.22,1.56c-11,4.29-18.92,16.91-18.92,31.82V345.37c0,18.44,12.16,33.36,27.14,33.36H361.86c-.29-.28-.93-.83-1.53-1.47Q289.15,304.71,218,232.09l-10.54-10.74c-.75-.76-1.67-2.07-1.48-2.88s1.62-1.47,2.64-1.75l10.36-2.81q27.41-7.53,54.83-15c.34-.09.68-.2,1.85-.55-3.47-3.38-6.55-6.29-9.52-9.31Q248,170.7,230,152.27c-.76-.77-1.77-2.24-1.5-2.85a4.58,4.58,0,0,1,2.85-1.87l1.5-.41q38.91-10.74,77.83-21.3l6.64-1.82c27-7.36,54-14.54,80.94-22.22a12.07,12.07,0,0,1,5.56-.5c2.16.39,4.06,1.66,6.08,3.76,16.21,16.81,32.65,33.44,49.06,50.09l9.14-6.61-6.48-6.67c.69-.51,1.54-1.15,2.43-1.77l30.69-21.9q29.46-21,58.94-42a9.46,9.46,0,0,1,3.07-.87Z"/>
    <path class="cls-5"
          d="M159,39.88a10.6,10.6,0,0,0-10.6,10.59V90.08a10.6,10.6,0,1,0,21.2,0h0V50.47A10.59,10.59,0,0,0,159,39.88h0Z"/>
    <text class="cls-6" transform="translate(67.25 298.82)">IAU</text>
    <text class="cls-6" transform="translate(66.99 360.14)">TABLER</text>
    <rect class="cls-7" x="56.27" y="216.03" width="149.67" height="0.17"/>
    <rect class="cls-7" x="56.27" y="145.81" width="176.61" height="0.09"/>
    <polygon class="cls-7" points="131.02 216.06 131.02 75.37 131.02 75.37 131.02 216.06"/>
    <polygon class="cls-7" points="210.97 216.06 210.97 75.37 210.97 75.37 210.97 216.06"/>
    <polygon class="cls-8"
             points="516.03 187.95 480.53 111.71 403.48 91.85 375.7 98.25 373.36 120.72 442.57 175.34 496.92 226.57 508.56 214.98 516.03 187.95"/>
    <polyline class="cls-1" points="361.86 373.1 350.01 373.1 357.15 365.96"/>
    <polygon class="cls-1" points="544.81 75.35 543.38 86.09 553.24 78.19 553.91 75.35 544.81 75.35"/>
    <polygon class="cls-7" points="299.23 156.63 299.23 75.56 299.23 75.56 299.23 156.63"/>
    <polygon class="cls-7" points="391.28 136.85 391.28 75.37 391.28 75.37 391.28 136.85"/>
    <polygon class="cls-7" points="469.99 136.85 469.99 75.56 469.99 75.56 469.99 136.85"/>
    <rect class="cls-7" x="408.43" y="145.67" width="107.61" height="0.09"/>
    <polygon class="cls-9" points="361.86 378.73 525.69 216.2 556.79 75.35 524.69 75.35 335.97 373.1 361.86 378.73"/>
    <path class="cls-5"
          d="M414.92,196.19A3.35,3.35,0,0,0,416,200c4.34,4.19,8.58,8.49,12.83,12.77,3.77,3.8,7.5,7.64,11.57,11.76,2.19-8.1,4.25-15.8,6.48-24l39.19,38.91,22.51-22.41c-.39-.42-.85-.95-1.35-1.46Q484.26,192.86,461.37,170q-7.14-7.12-14.27-14.23l-18.62-18.55Q413.21,121.93,398,106.57c-2.06-2.1-3.92-3.31-6.08-3.69a12.34,12.34,0,0,0-5.56.49c-12.12,3.4-24.27,6.69-36.43,9.95l-.08,0c-14.81,4-29.62,7.88-44.43,11.84L298.82,127,276.24,133q-27.62,7.41-55.25,14.84l-1.5.4a4.68,4.68,0,0,0-2.85,1.84c-.27.6.74,2,1.5,2.8Q236.13,171,254.2,189c3,3,6.05,5.81,9.52,9.13l-1.85.54Q234.45,206,207,213.41l-10.32,2.79c-1,.27-2.43,1-2.64,1.72s.73,2.07,1.48,2.82l10.54,10.54q71.18,71.27,142.39,142.47c.6.59,1.23,1.15,1.52,1.43l22.71-22.7c-.6-.52-1.49-1.18-2.25-2Q313.8,293.88,257.16,237.19c-2.43-2.43-2.16-3.63,1.21-4.53,9.66-2.62,19.37-5.12,29-7.82a3.47,3.47,0,0,1,3.94,1.18l1.07,1.19Q339.7,274.63,387.08,322c2.75,2.77,5.39,5.68,7.91,8.29l23-23.08-92.5-92.37a10.35,10.35,0,0,1,1.29-.54c10.8-2.9,21.58-5.83,32.43-8.61a3.73,3.73,0,0,1,3,.81c12.85,12.68,25.54,25.45,38.31,38.13a2.53,2.53,0,0,1,.68,2.88c-1.91,6.85-3.65,13.78-5.56,20.6a2.72,2.72,0,0,0,.81,3.07c7.84,7.79,15.63,15.62,23.46,23.43a11.78,11.78,0,0,0,1.42,1c2.15-8,4.2-15.62,6.26-23.28l.81-.43,12.07,12.85,23.09-23a12.64,12.64,0,0,1-2.23-1.47Q417.14,216.25,373,172a5.54,5.54,0,0,0-6.13-1.62q-25.45,7-50.95,13.71c-5.1,1.35-10.19,2.72-15.29,4.05a3.24,3.24,0,0,1-2.65-.7c-6.29-6.15-12.5-12.38-18.7-18.65-1.85-1.86-1.52-3.18,1-3.88,4.05-1.14,8.1-2.2,12.16-3.29L312,156.42q34.59-9.27,69.16-18.58a3.66,3.66,0,0,1,4.06,1.09q17.07,17.15,34.23,34.22a3,3,0,0,1,.86,3.29C418.47,183,416.77,189.63,414.92,196.19Z"/>
    <path class="cls-5"
          d="M544.81,77.43a9.79,9.79,0,0,0-3.07.86q-23.31,16.27-46.58,32.56l-.09.06-12.27,8.58L452.07,141c-.86.61-1.71,1.24-2.43,1.74l6.56,6.56,16.35,16.31c.54-.37,1.26-.81,2-1.32,4.71-3.25,9.38-6.62,14.14-9.82.71-.48,1.84-.33,2.77-.48a7.49,7.49,0,0,1,.31,2.6c-1.74,6.89-3.54,13.79-5.47,20.62a3.24,3.24,0,0,0,.94,3.64c7.65,7.56,15.24,15.19,22.84,22.78.46.46.94.86,1.67,1.51.22-.49.42-1,.59-1.51q16.47-61.52,32.87-123C545.39,79.65,545,78.49,544.81,77.43Z"/>
    <path class="cls-5" d="M480.53,50.47a10.61,10.61,0,0,0-21.21,0v24.9h0V90.08a10.61,10.61,0,0,0,21.21,0h0V75.37h0Z"/>
</svg>