<svg id="Layer_1" data-name="Layer 1" xmlns="http://www.w3.org/2000/svg"
     viewBox="0 0 618.32 426.38" width="70px" height="70px">
    <defs>
        <style>
            .cls-1,.cls-3,.cls-4{fill:#fff;}.cls-2{fill:url(#linear-gradient);}.cls-3{isolation:isolate;font-size:82.59px;font-family:BahijTheSansArabic-Bold,
            Bahij TheSansArabic;font-weight:700;}.cls-4{stroke:#fff;stroke-miterlimit:10;}
        </style>
        <linearGradient id="linear-gradient" x1="441.09" y1="-343.87" x2="1058.4" y2="-343.87"
                        gradientTransform="matrix(1, 0, 0, -1, -441.09, -116.49)" gradientUnits="userSpaceOnUse">
            <stop offset="0" stop-color="#1f2252"/>
            <stop offset="1" stop-color="#1e204f"/>
        </linearGradient>
    </defs>
    <title>IAU-TABLER</title>
    <path class="cls-1"
          d="M514.37,157.9q-8.79-8.79-17.6-17.55c-20.23-20.15-40.48-40.28-60.51-60.63-2.54-2.59-4.83-4.08-7.49-4.55a15.2,15.2,0,0,0-6.86.6c-33.19,9.3-66.54,18-99.83,26.9l-8.19,2.2q-48,12.85-96,25.79l-1.85.49c-1.33.36-3,1.19-3.51,2.27-.34.74.91,2.52,1.84,3.45q22.19,22.31,44.48,44.5c3.67,3.65,7.47,7.17,11.75,11.27-1.45.42-1.87.55-2.29.66q-33.81,9.07-67.63,18.19l-12.72,3.44c-1.25.34-3,1.2-3.26,2.12s.9,2.56,1.83,3.48l13,13q87.78,87.9,175.62,175.72c.74.74,1.52,1.43,1.88,1.77l28-28c-.74-.64-1.83-1.45-2.77-2.4q-69.9-69.89-139.76-139.8c-3-3-2.66-4.47,1.49-5.59,11.92-3.22,23.89-6.31,35.78-9.64,2.21-.63,3.42,0,4.87,1.46l1.32,1.46Q364.3,287,422.74,345.43c3.4,3.41,6.66,7,9.76,10.22l28.41-28.46L346.82,213.26a13.74,13.74,0,0,1,1.59-.67c13.32-3.58,26.62-7.19,40-10.62a4.64,4.64,0,0,1,3.74,1C408,218.61,423.65,234.36,439.4,250a3.13,3.13,0,0,1,.84,3.55c-2.36,8.45-4.51,17-6.86,25.41a3.35,3.35,0,0,0,1,3.79c9.67,9.6,19.28,19.26,28.93,28.89a14.39,14.39,0,0,0,1.76,1.25c2.64-9.83,5.18-19.27,7.72-28.71l1-.53,14.88,15.85,28.48-28.37a15.19,15.19,0,0,1-2.75-1.81Q459.83,215,405.4,160.47c-2.37-2.38-4.42-2.82-7.56-2q-31.39,8.58-62.84,16.91c-6.29,1.67-12.57,3.36-18.86,5a4,4,0,0,1-3.27-.87c-7.75-7.59-15.41-15.27-23.06-23-2.28-2.29-1.87-3.93,1.18-4.79,5-1.4,10-2.71,15-4.06l24.15-6.46q42.66-11.43,85.31-22.92a4.52,4.52,0,0,1,5,1.35q21.06,21.15,42.22,42.21a3.67,3.67,0,0,1,1.06,4.06c-2.27,8.1-4.36,16.26-6.65,24.35a4.13,4.13,0,0,0,1.31,4.69c5.36,5.17,10.58,10.47,15.82,15.75,4.65,4.69,9.26,9.42,14.27,14.51,2.71-10,5.25-19.49,8-29.56l48.34,48L572.58,216c-.48-.52-1.05-1.18-1.67-1.8Q542.61,186.14,514.37,157.9Z"
          transform="translate(0.5)"/>
    <path class="cls-1"
          d="M617.29,43.78h0c-1.28.33-2.78.35-3.79,1.06q-36.37,25.38-72.69,50.81l-37.9,26.51c-1.07.75-2.12,1.53-3,2.15L508,132.4l20.16,20.11c.67-.45,1.56-1,2.42-1.63,5.81-4,11.57-8.16,17.44-12.11.88-.59,2.27-.41,3.42-.59.15,1.07.63,2.24.38,3.21-2.15,8.5-4.37,17-6.75,25.43a4,4,0,0,0,1.17,4.49c9.43,9.32,18.79,18.73,28.17,28.1.56.56,1.16,1.06,2.06,1.86.27-.61.51-1.24.72-1.87q20.31-75.87,40.55-151.76C618,46.51,617.46,45.08,617.29,43.78Z"
          transform="translate(0.5)"/>
    <path class="cls-2"
          d="M540.81,43.78H33.47a28.1,28.1,0,0,0-10.14,1.89C9.8,50.86,0,66.13,0,84.18V370.62C0,392.94,15,411,33.47,411H376.91c-.36-.34-1.14-1-1.88-1.77q-87.79-87.84-175.6-175.74l-13-13c-.93-.92-2.06-2.5-1.83-3.48s2-1.78,3.26-2.12l12.77-3.4q33.81-9.13,67.63-18.19c.42-.11.84-.24,2.29-.66-4.28-4.1-8.08-7.62-11.75-11.27q-22.29-22.2-44.48-44.5c-.93-.93-2.18-2.71-1.84-3.45.49-1.08,2.18-1.91,3.51-2.27l1.85-.49q48-13,96-25.79l8.19-2.2c33.29-8.91,66.64-17.6,99.83-26.9a15.2,15.2,0,0,1,6.86-.6c2.66.47,5,2,7.49,4.55,20,20.35,40.28,40.48,60.51,60.63l11.28-8L500,124.28c.86-.62,1.91-1.4,3-2.15l37.86-26.51q36.33-25.43,72.69-50.81c1-.71,2.51-.73,3.79-1.06Z"
          transform="translate(0.5)"/>
    <path class="cls-1" d="M523.28,13.07a13.08,13.08,0,0,0-26.16,0V43.78h0V61.92a13.08,13.08,0,1,0,26.16,0h0V43.78h0Z"
          transform="translate(0.5)"/>
    <path class="cls-1"
          d="M126.73,0a13.08,13.08,0,0,0-13.08,13.07V61.92a13.08,13.08,0,1,0,26.16,0V13.07A13.07,13.07,0,0,0,126.74,0Z"
          transform="translate(0.5)"/>
    <text class="cls-3" transform="translate(26.43 306.99)">IAU</text>
    <text class="cls-3" transform="translate(26.12 382.63)">TABLER</text>
    <rect class="cls-4" x="0.5" y="217.27" width="184.6" height="0.21"/>
    <rect class="cls-4" x="0.5" y="130.66" width="217.83" height="0.11"/>
    <polygon class="cls-4" points="92.69 217.31 92.69 43.78 92.69 43.78 92.69 217.31"/>
    <polygon class="cls-4" points="191.31 217.31 191.31 43.78 191.31 43.78 191.31 217.31"/>
    <polygon class="cls-4" points="286.54 217.31 286.54 43.78 286.54 43.78 286.54 217.31"/>
    <rect class="cls-4" x="377.37" y="43.78" width="0.11" height="85.02"/>
    <polygon class="cls-4" points="474.31 148.85 474.31 43.78 474.31 43.78 474.31 148.85"/>
    <rect class="cls-4" x="556.44" y="43.78" width="0.11" height="132.19"/>
</svg>