<?xml version="1.0" standalone="no"?>
<!DOCTYPE svg PUBLIC "-//W3C//DTD SVG 1.1//EN" "http://www.w3.org/Graphics/SVG/1.1/DTD/svg11.dtd" >
<svg xmlns="http://www.w3.org/2000/svg" xmlns:xlink="http://www.w3.org/1999/xlink" version="1.1">
<metadata>
Created by FontForge 20180930 at Mon Oct  8 05:56:03 2018
 By Linux User,,,
(c)  2013 Bahij Virtual Academy. All rights reserved.
</metadata>
<defs>
<font id="BahijTheSansArabic-Bold" horiz-adv-x="1126" >
  <font-face 
    font-family="Bahij TheSansArabic Bold"
    font-weight="500"
    font-stretch="normal"
    units-per-em="2048"
    panose-1="2 4 5 3 5 2 1 2 2 3"
    ascent="1638"
    descent="-410"
    x-height="1018"
    cap-height="1382"
    bbox="-137 -532 2345 1913"
    underline-thickness="50"
    underline-position="-100"
    unicode-range="U+0020-FEF3"
  />
    <missing-glyph />
    <glyph glyph-name="uniFEB0" unicode="&#x632;" horiz-adv-x="851" arabic-form="final" 
d="M4 -500l20 215q85 -24 166 -24q111 0 163 60q59 68 59 226v986h270v-750h201v-213h-201v-8q0 -512 -506 -512q-90 0 -172 20zM445 1175q-42 41 -42 101q0 58 42 100q41 41 100 41q58 0 100 -41q41 -42 41 -100t-41 -100q-42 -41 -100 -41q-59 0 -100 40z" />
    <glyph glyph-name="uniFED3" unicode="&#x641;" horiz-adv-x="1253" arabic-form="initial" 
d="M0 0v213h117q71 0 114 -14q-114 83 -114 293q0 208 132 346q146 151 400 151q463 0 463 -471v-518h-1112zM848 485q0 291 -219 291q-113 0 -180 -78q-64 -76 -64 -198q0 -287 307 -287h156v272zM523 1183q-42 42 -42 101q0 58 42 100q41 41 100 41q58 0 99 -41
q42 -42 42 -100t-42 -100q-41 -41 -99 -41q-59 0 -100 40z" />
    <glyph glyph-name="uniFEF3" unicode="&#x64a;" horiz-adv-x="806" arabic-form="initial" 
d="M0 213h385v750h270v-963h-655v213zM610 -405q-40 -41 -96 -41q-57 0 -96 40t-39 99q0 57 39 98q40 41 96 41q57 0 96 -40q39 -41 39 -99q0 -57 -39 -98zM272 -405q-40 -41 -98 -41q-57 0 -96 40t-39 99q0 57 39 98q40 41 96 41q58 0 98 -40q39 -41 39 -99t-39 -98z" />
    <glyph glyph-name="uniFB61" unicode="&#x67a;" horiz-adv-x="708" arabic-form="medial" 
d="M0 213h287v750h270v-750h182v-213h-739v213zM519 1498q-41 -39 -99 -39q-57 0 -98 39q-41 40 -41 96q0 57 40 96q40 40 99 40q57 0 98 -40q41 -39 41 -96q0 -56 -40 -96zM519 1158q-41 -39 -99 -39q-57 0 -98 39q-41 40 -41 96q0 59 40 98q40 40 99 40q57 0 98 -40
t41 -98q0 -56 -40 -96z" />
    <glyph glyph-name="uni06B6.init" unicode="&#x6b6;" horiz-adv-x="698" 
d="M0 213h254v1231h270v-1444h-524v213zM291 1577q-40 40 -40 98t40 99t97 41t96 -41q40 -40 40 -99q0 -57 -40 -98q-39 -41 -96 -41q-58 0 -97 41z" />
    <glyph glyph-name="space" unicode=" " horiz-adv-x="400" 
 />
    <glyph glyph-name="uni0641" unicode="&#x641;" horiz-adv-x="1896" 
d="M1665 144q-146 -144 -375 -144h-436q-401 0 -585 163q-167 147 -167 443q0 176 53 322l289 47q-70 -153 -70 -338q0 -219 108 -320q111 -104 355 -104h68q-90 84 -90 266q0 223 144 366q145 144 376 144q225 0 348 -116q129 -123 129 -361q0 -224 -147 -368zM1316 776
q-96 0 -159 -65q-72 -74 -72 -209q0 -289 227 -289q101 0 162 71q66 76 66 214q0 278 -224 278zM1217 1175q-42 41 -42 101q0 58 42 100q41 41 99 41q59 0 100 -41q42 -42 42 -100t-42 -100q-41 -41 -100 -41q-58 0 -99 40z" />
    <glyph glyph-name="uni06B6" unicode="&#x6b6;" horiz-adv-x="1335" 
d="M903 1444h270v-1288q0 -627 -549 -627q-528 0 -528 582q0 188 49 366l279 51q-58 -204 -58 -393q0 -395 281 -395q256 0 256 395v1309zM941 1577q-40 40 -40 98t40 99t97 41t96 -41q40 -40 40 -99q0 -57 -40 -98q-39 -41 -96 -41q-58 0 -97 41z" />
    <glyph glyph-name="uni0765.init" horiz-adv-x="1253" 
d="M0 0v213h117q71 0 114 -14q-114 83 -114 293q0 208 132 346q146 151 400 151q463 0 463 -471v-518h-1112zM848 485q0 291 -219 291q-113 0 -180 -78q-64 -76 -64 -198q0 -287 307 -287h156v272zM541 1137q-40 40 -40 98t40 99t97 41t96 -41q40 -40 40 -99q0 -57 -40 -98
q-39 -41 -96 -41q-58 0 -97 41z" />
    <glyph glyph-name="uni0765.medi" horiz-adv-x="1335" 
d="M775 0q-331 0 -459 160q-62 -160 -325 -160h-31v213q120 0 177 59q63 65 63 220q0 208 132 346q146 151 400 151q463 0 463 -471v-305h172v-213h-592zM931 485q0 291 -219 291q-113 0 -180 -78q-64 -76 -64 -198q0 -287 307 -287h156v272zM641 1137q-40 40 -40 98t40 99
t97 41t96 -41q40 -40 40 -99q0 -57 -40 -98q-39 -41 -96 -41q-58 0 -97 41z" />
    <glyph glyph-name="uni0765.fina" horiz-adv-x="1650" 
d="M1083 0q-497 0 -541 397h-45q-89 0 -116 -58t-4 -202l106 -669h-260l-104 649q-36 229 53 356q98 137 334 137h49q37 169 165 270q138 109 349 109q463 0 463 -471v-305h174v-213h-623zM1270 485q0 291 -220 291q-113 0 -179 -78q-64 -76 -64 -198q0 -287 307 -287h156
v272zM941 1137q-40 40 -40 98t40 99t97 41t96 -41q40 -40 40 -99q0 -57 -40 -98q-39 -41 -96 -41q-58 0 -97 41z" />
    <glyph glyph-name="glyph476" horiz-adv-x="2313" 
d="M1909 485q0 291 -219 291q-113 0 -180 -78q-64 -76 -64 -198q0 -287 307 -287h156v272zM382 637q0 -223 111 -320q117 -104 397 -104h48q120 0 177 59q63 65 63 220q0 208 132 346q146 151 400 151q463 0 463 -471v-305h172v-213h-592q-331 0 -459 160
q-56 -144 -273 -158l-159 -2q-401 0 -585 163q-163 143 -167 428l272 58v-12zM1601 1137q-40 40 -40 98t40 99t97 41t96 -41q40 -40 40 -99q0 -57 -40 -98q-39 -41 -96 -41q-58 0 -97 41z" />
    <glyph glyph-name="uni0766" unicode="&#x766;" horiz-adv-x="1650" 
d="M1083 0q-497 0 -541 397h-45q-89 0 -116 -58t-4 -202l106 -669h-260l-104 649q-36 229 53 356q98 137 334 137h49q37 169 165 270q138 109 349 109q463 0 463 -471v-518h-449zM1270 485q0 291 -220 291q-113 0 -179 -78q-64 -76 -64 -198q0 -287 307 -287h156v272z
M969 -340q-40 40 -40 98t40 99t97 41t96 -41q40 -40 40 -99q0 -57 -40 -98q-39 -41 -96 -41q-58 0 -97 41z" />
    <glyph glyph-name="glyph478" horiz-adv-x="2310" 
d="M1906 485q0 291 -219 291q-113 0 -180 -78q-64 -76 -64 -198q0 -287 307 -287h156v272zM2170 0h-420q-331 0 -459 160q-56 -144 -273 -158l-159 -2q-401 0 -585 163q-163 143 -167 428l272 58v-12q0 -223 111 -320q117 -104 397 -104h48q120 0 177 59q63 65 63 220
q0 208 132 346q146 151 400 151q463 0 463 -471v-518zM1599 -340q-40 40 -40 98t40 99t97 41t96 -41q40 -40 40 -99q0 -57 -40 -98q-39 -41 -96 -41q-58 0 -97 41z" />
    <glyph glyph-name="uni06B5.init_uniFE82.rlig" horiz-adv-x="1222" 
d="M631 367h-275l-293 1054l269 37zM147 0v213h633v1231h271v-1444h-904zM-43 1700l215 160q86 -80 193 -80q111 0 213 84v-197q-96 -78 -226 -78q-111 0 -182 66l-119 -84zM1216 1789l-289 -255l-288 257l92 109l195 -153l196 153z" />
    <glyph glyph-name="uni06B6.medi_uni0672.fina.rlig" horiz-adv-x="1263" 
d="M188 0v213h633v1196h270v-1196h203v-213h-1106zM671 367h-274l-219 747h278zM643 1309v-125h-612v125h94q88 285 318 285q175 0 197 -185h-145q-16 64 -67 64q-109 0 -155 -164h370zM844 1597q-41 41 -41 101q0 58 41 100q42 41 100 41q59 0 100 -41q42 -42 42 -100
t-42 -100q-41 -41 -100 -41q-58 0 -100 40z" />
    <glyph glyph-name="comma" unicode="," horiz-adv-x="528" 
d="M381 249q47 -57 47 -148q-2 -225 -264 -455l-109 96q185 196 84 315q-59 71 -21 158q40 90 144 90q73 0 119 -56z" />
    <glyph glyph-name="semicolon" unicode=";" horiz-adv-x="610" 
d="M446 606q-48 -49 -117 -49t-119 49q-49 50 -49 119q0 68 49 117q50 49 119 49t117 -49q49 -49 49 -117q0 -69 -49 -119zM447 249q48 -57 47 -148q-1 -225 -263 -455l-109 96q182 195 84 315q-59 71 -21 158q39 90 142 90q74 0 120 -56z" />
    <glyph glyph-name="colon" unicode=":" horiz-adv-x="610" 
d="M446 606q-48 -49 -117 -49t-119 49q-49 50 -49 119q0 68 49 117q50 49 119 49t117 -49q49 -49 49 -117q0 -69 -49 -119zM446 27q-48 -50 -117 -50t-119 50q-49 49 -49 118q0 68 49 117q50 49 119 49t117 -49q49 -49 49 -117q0 -69 -49 -118z" />
    <glyph glyph-name="period" unicode="." horiz-adv-x="528" 
d="M382 27q-49 -50 -118 -50t-119 50q-49 49 -49 118q0 68 49 117q50 49 119 49t118 -49q50 -49 50 -117q0 -69 -50 -118z" />
    <glyph glyph-name="ellipsis" unicode="&#x2026;" horiz-adv-x="1480" 
d="M1325 24q-47 -47 -113 -47t-113 47t-47 113t47 113t113 47t113 -47t47 -113t-47 -113zM848 24q-47 -47 -113 -47t-113 47t-47 113t47 113t113 47t113 -47t47 -113t-47 -113zM370 24q-48 -47 -114 -47t-113 47t-47 113t47 113t113 47t114 -47t48 -113t-48 -113z" />
    <glyph glyph-name="exclam" unicode="!" horiz-adv-x="657" 
d="M460 385h-225l-43 1065h307zM459 22q-46 -45 -115 -45q-68 0 -114 45t-46 111q0 65 46 110q46 46 114 46t115 -46q47 -45 47 -110q0 -66 -47 -111z" />
    <glyph glyph-name="exclamdown" unicode="&#xa1;" horiz-adv-x="657" 
d="M426 775q-46 -46 -113 -46q-68 0 -114 46q-46 45 -46 110q0 66 46 111q46 44 114 44q67 0 113 -44q46 -45 46 -111q0 -65 -46 -110zM157 -432l39 1065h225l43 -1065h-307z" />
    <glyph glyph-name="question" unicode="?" horiz-adv-x="923" 
d="M637 711q-84 -78 -110 -133q-40 -83 -7 -193h-256q-75 223 89 386l65 61q41 36 61 58q61 66 61 132q0 92 -107 147q-107 56 -296 62l33 237q320 -7 497 -133q160 -114 160 -286q0 -162 -190 -338zM509 22q-46 -45 -114 -45t-114 45t-46 111q0 65 46 110q47 46 114 46
t114 -46q46 -45 46 -110q0 -66 -46 -111z" />
    <glyph glyph-name="questiondown" unicode="&#xbf;" horiz-adv-x="923" 
d="M642 775q-47 -46 -114 -46t-114 46q-46 45 -46 110q0 66 46 111q46 44 114 44t114 -44q46 -45 46 -111q0 -65 -46 -110zM753 -451q-320 8 -497 134q-160 114 -160 286q0 162 190 338q84 78 111 133q39 83 6 193h256q76 -223 -89 -386q-18 -18 -65 -61q-41 -36 -61 -58
q-61 -67 -61 -132q0 -92 107 -148q107 -55 296 -61z" />
    <glyph glyph-name="quoteleft" unicode="&#x2018;" horiz-adv-x="546" 
d="M470 1452q-183 -197 -84 -315q61 -70 23 -158q-40 -90 -144 -90q-73 0 -119 56q-48 57 -47 148q1 226 265 455z" />
    <glyph glyph-name="quoteright" unicode="&#x2019;" horiz-adv-x="546" 
d="M398 1474q47 -57 47 -149q-2 -225 -265 -455l-109 97q186 197 84 315q-59 70 -21 158q40 90 144 90q73 0 120 -56z" />
    <glyph glyph-name="quotedblleft" unicode="&#x201c;" horiz-adv-x="993" 
d="M919 1452q-184 -197 -84 -315q59 -71 21 -158q-40 -90 -142 -90q-74 0 -121 56q-48 57 -47 148q1 225 264 455zM470 1452q-183 -197 -84 -315q61 -70 23 -158q-40 -90 -144 -90q-73 0 -119 56q-48 57 -47 148q1 226 265 455z" />
    <glyph glyph-name="quotedblright" unicode="&#x201d;" horiz-adv-x="993" 
d="M845 1474q48 -57 47 -149q-1 -225 -264 -455l-108 97q183 196 83 315q-59 70 -21 158q40 90 142 90q74 0 121 -56zM398 1474q47 -57 47 -149q-2 -225 -265 -455l-109 97q186 197 84 315q-59 70 -21 158q40 90 144 90q73 0 120 -56z" />
    <glyph glyph-name="quotesinglbase" unicode="&#x201a;" horiz-adv-x="546" 
d="M398 249q47 -57 47 -148q-2 -226 -265 -455l-109 96q185 196 84 315q-59 71 -21 158q40 90 144 90q73 0 120 -56z" />
    <glyph glyph-name="quotedblbase" unicode="&#x201e;" horiz-adv-x="993" 
d="M845 249q48 -57 47 -148q-1 -225 -264 -455l-108 96q181 195 83 315q-59 71 -21 158q40 90 142 90q74 0 121 -56zM398 249q47 -57 47 -148q-2 -226 -265 -455l-109 96q185 196 84 315q-59 71 -21 158q40 90 144 90q73 0 120 -56z" />
    <glyph glyph-name="guilsinglleft" unicode="&#x2039;" horiz-adv-x="638" 
d="M314 205l-231 393l236 399l198 -96l-182 -301l186 -297z" />
    <glyph glyph-name="guilsinglright" unicode="&#x203a;" horiz-adv-x="638" 
d="M319 205l-199 96l184 301l-186 297l207 98l231 -393z" />
    <glyph glyph-name="guillemotleft" unicode="&#xab;" horiz-adv-x="1093" 
d="M772 211l-242 387l246 393l197 -94l-189 -297l193 -293zM305 201l-219 397l225 403l201 -92l-174 -309l178 -305z" />
    <glyph glyph-name="guillemotright" unicode="&#xbb;" horiz-adv-x="1093" 
d="M782 201l-203 92l176 309l-178 305l211 94l219 -397zM315 211l-197 94l191 297l-193 293l205 96l241 -387z" />
    <glyph glyph-name="parenleft" unicode="(" horiz-adv-x="626" 
d="M409 -440q-303 476 -303 1024q0 551 305 1028l191 -88q-238 -425 -238 -930q0 -520 244 -942z" />
    <glyph glyph-name="parenright" unicode=")" horiz-adv-x="626" 
d="M219 -440l-191 88q240 422 240 932q0 512 -242 942l199 90q299 -479 299 -1022q0 -553 -305 -1030z" />
    <glyph glyph-name="braceleft" unicode="{" horiz-adv-x="741" 
d="M633 -420q-199 0 -287 109q-86 108 -86 348v276q0 123 -51 176q-46 47 -154 54v196q111 7 155 49q50 49 50 173v178q0 230 85 338q89 114 288 114h43v-207q-102 0 -136 -47q-36 -49 -36 -194v-176q0 -290 -189 -324v-4q189 -27 189 -330v-274q0 -147 36 -197
q34 -47 136 -47v-211h-43z" />
    <glyph glyph-name="braceright" unicode="}" horiz-adv-x="737" 
d="M692 543q-107 -7 -154 -54q-51 -53 -51 -176v-276q0 -240 -87 -348q-87 -109 -284 -109h-45v211q102 0 137 47q37 50 37 197v274q0 303 188 330v4q-188 27 -188 318v182q0 145 -37 194q-35 47 -137 47v207h45q198 0 287 -114q84 -108 84 -338v-172q0 -128 50 -178
q44 -43 155 -50v-196z" />
    <glyph glyph-name="bracketleft" unicode="[" horiz-adv-x="671" 
d="M145 -420v2011h453v-207h-207v-1593h207v-211h-453z" />
    <glyph glyph-name="bracketright" unicode="]" horiz-adv-x="671" 
d="M73 -420v211h205v1593h-205v207h451v-2011h-451z" />
    <glyph glyph-name="bar" unicode="|" horiz-adv-x="589" 
d="M186 -494v2048h209v-2048h-209z" />
    <glyph glyph-name="slash" unicode="/" horiz-adv-x="948" 
d="M236 -330h-258l717 1880h258z" />
    <glyph glyph-name="hyphen" unicode="-" horiz-adv-x="684" 
d="M90 463v211h504v-211h-504z" />
    <glyph glyph-name="endash" unicode="&#x2013;" 
d="M0 496v227h1126v-227h-1126z" />
    <glyph glyph-name="emdash" unicode="&#x2014;" horiz-adv-x="2048" 
d="M227 496v227h1593v-227h-1593z" />
    <glyph glyph-name="bullet" unicode="&#x2022;" horiz-adv-x="866" 
d="M648 394q-90 -89 -216 -89q-125 0 -214 89t-89 214t89 214t214 89q126 0 216 -89q89 -89 89 -214q0 -124 -89 -214z" />
    <glyph glyph-name="periodcentered" unicode="&#xb7;" horiz-adv-x="550" 
d="M396 490q-51 -50 -120 -50q-71 0 -120 50q-50 50 -50 120t50 120t120 50q69 0 120 -50q50 -51 50 -120q0 -70 -50 -120z" />
    <glyph glyph-name="asterisk" unicode="*" horiz-adv-x="786" 
d="M624 928l-174 139l33 -221h-187l33 221l-176 -139l-90 159l207 82l-207 82l92 162l174 -139l-33 221h187l-33 -221l174 139l92 -160l-207 -82l207 -84z" />
    <glyph glyph-name="dagger" unicode="&#x2020;" horiz-adv-x="935" 
d="M575 1092l43 -181l-47 -522h-204l-50 522l43 181h-274v202h274l-43 279h301l-43 -279h277v-202h-277z" />
    <glyph glyph-name="daggerdbl" unicode="&#x2021;" horiz-adv-x="935" 
d="M578 588l43 -250h-306l43 250h-272v200h272l-41 166l41 168h-272v201h272l-41 250h301l-40 -250h274v-201h-274l40 -168l-40 -166h274v-200h-274z" />
    <glyph glyph-name="section" unicode="&#xa7;" horiz-adv-x="1085" 
d="M779 209q76 -93 76 -213q0 -141 -105 -232q-123 -106 -356 -106q-94 0 -170 20l17 220q83 -25 157 -25q177 0 177 125q0 71 -227 266q-226 196 -226 402q0 183 156 297q-76 94 -76 213q0 147 99 235q112 100 331 100q100 0 168 -16l-14 -217q-71 20 -146 20
q-158 0 -158 -114q0 -66 228 -270q227 -204 227 -408q0 -177 -158 -297zM617 648q22 -25 -192 183q-65 -50 -65 -131q0 -120 276 -358q64 48 64 129q0 86 -83 177z" />
    <glyph glyph-name="paragraph" unicode="&#xb6;" horiz-adv-x="1218" 
d="M980 1174v-1371h-366v209h143v1370h357v-208h-134zM599 473q-241 -1 -372 135q-117 122 -117 322q0 204 136 329q135 123 353 123v-909z" />
    <glyph glyph-name="A" unicode="A" horiz-adv-x="1282" 
d="M985 0l-94 283h-524l-97 -283h-268l477 1382h314l487 -1382h-295zM682 905q-36 109 -55 191h-2q-33 -123 -54 -191l-141 -411h393z" />
    <glyph glyph-name="B" unicode="B" horiz-adv-x="1187" 
d="M977 131q-148 -135 -431 -135l-171 2q-135 2 -232 2v1380q195 11 459 11q223 0 343 -88q120 -89 120 -254q0 -226 -209 -310v-4q110 -23 179 -108q69 -86 69 -201q0 -179 -127 -295zM559 1178q-64 0 -150 -4v-363q33 -2 109 -2q264 0 264 197q0 172 -223 172zM526 610
q-88 0 -117 -2v-391q99 -6 148 -6q127 0 196 58q66 55 66 149q0 192 -293 192z" />
    <glyph glyph-name="C" unicode="C" horiz-adv-x="1159" 
d="M1076 47q-167 -63 -360 -63q-337 0 -501 202q-138 171 -138 461q0 340 173 538q182 210 519 210q157 0 295 -41l-37 -246q-126 49 -270 49q-189 0 -291 -131q-96 -123 -96 -334q0 -467 403 -467q144 0 262 58z" />
    <glyph glyph-name="D" unicode="D" horiz-adv-x="1366" 
d="M1078 176q-203 -184 -550 -184q-93 0 -385 10v1378q271 11 446 11q701 0 701 -676q0 -347 -212 -539zM571 1167q-97 0 -162 -6v-932q62 -10 146 -10q204 0 321 115q127 124 127 360q0 473 -432 473z" />
    <glyph glyph-name="E" unicode="E" horiz-adv-x="1009" 
d="M143 0v1382h752v-223h-486v-340h461v-217h-461v-373h486v-229h-752z" />
    <glyph glyph-name="F" unicode="F" horiz-adv-x="952" 
d="M409 1155v-354h447v-219h-447v-582h-266v1382h739v-227h-473z" />
    <glyph glyph-name="G" unicode="G" horiz-adv-x="1382" 
d="M1244 66q-213 -86 -473 -86q-336 0 -519 180q-179 176 -179 489q0 344 197 545q204 209 571 209q203 0 391 -60l-53 -243q-159 65 -354 65q-233 0 -355 -142q-108 -127 -108 -339q0 -221 112 -342q115 -123 328 -123q96 0 176 25v481h266v-659z" />
    <glyph glyph-name="H" unicode="H" horiz-adv-x="1404" 
d="M995 0v600h-586v-600h-266v1382h266v-553h586v553h268v-1382h-268z" />
    <glyph glyph-name="I" unicode="I" horiz-adv-x="552" 
d="M143 0v1382h266v-1382h-266z" />
    <glyph glyph-name="J" unicode="J" horiz-adv-x="686" 
d="M545 387q0 -405 -373 -405q-78 0 -172 16v229q55 -20 127 -20q152 0 152 190v985h266v-995z" />
    <glyph glyph-name="K" unicode="K" horiz-adv-x="1222" 
d="M854 0l-445 664v-664h-266v1382h266v-626l447 626h327l-508 -667l529 -715h-350z" />
    <glyph glyph-name="L" unicode="L" horiz-adv-x="878" 
d="M143 0v1382h266v-1149h449v-233h-715z" />
    <glyph glyph-name="M" unicode="M" horiz-adv-x="1804" 
d="M1464 0l-101 668q-22 150 -43 346h-4q-41 -197 -77 -316l-224 -698h-258l-213 649q-57 186 -90 365h-4q-16 -195 -37 -369l-80 -645h-268l211 1382h313l234 -714q46 -150 76 -291h4q43 183 75 287l236 718h311l215 -1382h-276z" />
    <glyph glyph-name="N" unicode="N" horiz-adv-x="1431" 
d="M936 0l-428 762q-88 172 -123 270q14 -211 14 -657v-375h-256v1382h352l418 -743q70 -123 133 -277q-14 244 -14 672v348h256v-1382h-352z" />
    <glyph glyph-name="O" unicode="O" horiz-adv-x="1439" 
d="M1173 173q-190 -196 -477 -196q-310 0 -473 188q-156 179 -156 505q0 334 199 539q190 196 477 196q310 0 472 -187q157 -180 157 -505q0 -335 -199 -540zM997 1033q-95 132 -277 132q-161 0 -262 -120q-106 -126 -106 -343q0 -227 90 -352q95 -131 276 -131
q162 0 263 119q106 126 106 344q0 226 -90 351z" />
    <glyph glyph-name="P" unicode="P" horiz-adv-x="1101" 
d="M914 614q-149 -141 -409 -141q-51 0 -96 4v-477h-266v1382q190 9 387 9q253 0 389 -111q135 -111 135 -315q0 -217 -140 -351zM512 1171q-52 0 -103 -2v-464q51 -11 113 -11q256 0 256 244q0 233 -266 233z" />
    <glyph glyph-name="Q" unicode="Q" horiz-adv-x="1439" 
d="M1437 -135q-198 -29 -372 37q-200 75 -310 75h-59q-310 0 -473 188q-156 179 -156 505q0 334 199 539q190 196 477 196q310 0 472 -187q157 -180 157 -505q0 -434 -285 -580q39 0 155 -29q99 -25 195 -12v-227zM997 1033q-95 132 -277 132q-161 0 -262 -120
q-106 -126 -106 -343q0 -227 90 -352q95 -131 276 -131q161 0 262 120q107 127 107 343q0 226 -90 351z" />
    <glyph glyph-name="R" unicode="R" horiz-adv-x="1161" 
d="M805 0l-373 571h-23v-571h-266v1382q145 9 397 9q502 0 502 -390q0 -150 -98 -257q-94 -102 -242 -128q78 -102 111 -151l321 -465h-329zM514 1174q-65 0 -105 -7v-399q37 -4 96 -4q120 0 189 57q70 57 70 154q0 199 -250 199z" />
    <glyph glyph-name="S" unicode="S" horiz-adv-x="1030" 
d="M808 105q-150 -128 -387 -128q-181 0 -320 37l29 256q142 -59 301 -59q232 0 232 180q0 86 -91 141q-24 14 -200 87q-291 119 -291 370q0 188 136 300q140 116 386 116q124 0 250 -27l-24 -233q-120 39 -238 39q-227 0 -227 -166q0 -80 92 -135q20 -12 204 -90
q295 -126 295 -369q0 -194 -147 -319z" />
    <glyph glyph-name="T" unicode="T" horiz-adv-x="1044" 
d="M655 1155v-1155h-267v1155h-358v227h983v-227h-358z" />
    <glyph glyph-name="U" unicode="U" horiz-adv-x="1394" 
d="M1251 537q0 -560 -573 -560q-535 0 -535 502v903h266v-886q0 -144 58 -214q68 -83 229 -83q155 0 222 72q69 74 69 249v862h264v-845z" />
    <glyph glyph-name="V" unicode="V" horiz-adv-x="1286" 
d="M794 0h-307l-481 1382h291l268 -809q54 -158 80 -266h4q31 123 84 283l272 792h275z" />
    <glyph glyph-name="W" unicode="W" horiz-adv-x="1947" 
d="M1546 0h-328l-200 762q-28 107 -54 285h-2q-15 -144 -51 -279l-200 -768h-310l-352 1382h285l188 -764q32 -125 51 -280h2q26 164 54 272l211 772h282l213 -768q40 -147 55 -268h2q22 147 52 264l188 772h266z" />
    <glyph glyph-name="X" unicode="X" horiz-adv-x="1286" 
d="M929 0l-297 508l-297 -508h-315l440 707l-413 675h309l280 -479l279 479h303l-407 -673l454 -709h-336z" />
    <glyph glyph-name="Y" unicode="Y" horiz-adv-x="1148" 
d="M704 489v-489h-266v487l-432 895h291l182 -397q52 -115 94 -229h4q29 80 111 256l174 370h283z" />
    <glyph glyph-name="Z" unicode="Z" horiz-adv-x="1099" 
d="M92 0v205l498 811q58 89 90 131q-99 -4 -252 -4h-320v239h893v-215l-526 -829q-44 -70 -64 -96q35 4 299 4h300v-246h-918z" />
    <glyph glyph-name="Agrave" unicode="&#xc0;" horiz-adv-x="1282" 
d="M985 0l-94 283h-524l-97 -283h-268l477 1382h314l487 -1382h-295zM682 905q-36 109 -55 191h-2q-33 -123 -54 -191l-141 -411h393zM762 1466l-441 109l60 188l424 -153z" />
    <glyph glyph-name="Aacute" unicode="&#xc1;" horiz-adv-x="1282" 
d="M985 0l-94 283h-524l-97 -283h-268l477 1382h314l487 -1382h-295zM682 905q-36 109 -55 191h-2q-33 -123 -54 -191l-141 -411h393zM498 1466l-43 144l426 153l59 -188z" />
    <glyph glyph-name="Acircumflex" unicode="&#xc2;" horiz-adv-x="1282" 
d="M985 0l-94 283h-524l-97 -283h-268l477 1382h314l487 -1382h-295zM682 905q-36 109 -55 191h-2q-33 -123 -54 -191l-141 -411h393zM911 1464l-284 115l-273 -113l-57 131l338 175l340 -168z" />
    <glyph glyph-name="Atilde" unicode="&#xc3;" horiz-adv-x="1282" 
d="M985 0l-94 283h-524l-97 -283h-268l477 1382h314l487 -1382h-295zM682 905q-36 109 -55 191h-2q-33 -123 -54 -191l-141 -411h393zM1022 1659q-95 -168 -256 -168q-78 0 -154 48t-108 48q-69 0 -119 -88l-129 90q95 168 256 168q78 0 153 -48q76 -48 109 -48q67 0 119 86
z" />
    <glyph glyph-name="Adieresis" unicode="&#xc4;" horiz-adv-x="1282" 
d="M985 0l-94 283h-524l-97 -283h-268l477 1382h314l487 -1382h-295zM682 905q-36 109 -55 191h-2q-33 -123 -54 -191l-141 -411h393zM951 1512q-40 -39 -97 -39t-96 39t-39 96t39 96t96 39t97 -39q40 -40 40 -96q0 -57 -40 -96zM511 1512q-40 -39 -97 -39t-97 39
q-41 39 -41 96q0 56 41 96q40 39 97 39t97 -39q40 -40 40 -96q0 -57 -40 -96z" />
    <glyph glyph-name="Aring" unicode="&#xc5;" horiz-adv-x="1282" 
d="M985 0l-94 283h-524l-97 -283h-268l477 1382h314l487 -1382h-295zM682 905q-36 109 -55 191h-2q-33 -123 -54 -191l-141 -411h393zM811 1523q-71 -67 -170 -67q-100 0 -168 64q-70 65 -70 163t71 164q70 66 169 66q101 0 170 -64q70 -64 70 -161t-72 -165zM711 1755
q-28 29 -68 29t-69 -29q-29 -30 -29 -69q0 -40 29 -70q29 -29 69 -29t68 29t28 70q0 40 -28 69z" />
    <glyph glyph-name="AE" unicode="&#xc6;" horiz-adv-x="1607" 
d="M746 0v305h-403l-148 -305h-272l684 1382h872v-223h-477v-340h461v-217h-461v-373h492v-229h-748zM746 1159h-4q-52 -134 -127 -289l-182 -356h313v645z" />
    <glyph glyph-name="Ccedilla" unicode="&#xc7;" horiz-adv-x="1159" 
d="M1076 47q-167 -63 -360 -63q-337 0 -501 202q-138 171 -138 461q0 340 173 538q182 210 519 210q157 0 295 -41l-37 -246q-126 49 -270 49q-189 0 -291 -131q-96 -123 -96 -334q0 -467 403 -467q144 0 262 58zM743 -82q147 -202 -41 -397h-197q77 93 84 163q8 78 -63 166
z" />
    <glyph glyph-name="Egrave" unicode="&#xc8;" horiz-adv-x="1009" 
d="M143 0v1382h752v-223h-486v-340h461v-217h-461v-373h486v-229h-752zM643 1466l-441 109l60 188l424 -153z" />
    <glyph glyph-name="Eacute" unicode="&#xc9;" horiz-adv-x="1009" 
d="M143 0v1382h752v-223h-486v-340h461v-217h-461v-373h486v-229h-752zM379 1466l-43 144l425 153l60 -188z" />
    <glyph glyph-name="Ecircumflex" unicode="&#xca;" horiz-adv-x="1009" 
d="M143 0v1382h752v-223h-486v-340h461v-217h-461v-373h486v-229h-752zM792 1464l-284 115l-273 -113l-57 131l338 175l340 -168z" />
    <glyph glyph-name="Edieresis" unicode="&#xcb;" horiz-adv-x="1009" 
d="M143 0v1382h752v-223h-486v-340h461v-217h-461v-373h486v-229h-752zM828 1512q-40 -39 -97 -39t-96 39t-39 96t39 96t96 39t97 -39q40 -40 40 -96q0 -57 -40 -96zM387 1512q-40 -39 -97 -39t-97 39t-40 96q0 56 40 96q40 39 97 39t97 -39q41 -40 41 -96q0 -57 -41 -96z
" />
    <glyph glyph-name="Igrave" unicode="&#xcc;" horiz-adv-x="552" 
d="M144 0v1382h266v-1382h-266zM404 1466l-440 109l59 188l424 -153z" />
    <glyph glyph-name="Iacute" unicode="&#xcd;" horiz-adv-x="552" 
d="M143 0v1382h266v-1382h-266zM151 1466l-43 144l426 153l59 -188z" />
    <glyph glyph-name="Icircumflex" unicode="&#xce;" horiz-adv-x="552" 
d="M144 0v1382h266v-1382h-266zM555 1464l-284 115l-273 -113l-57 131l338 175l340 -168z" />
    <glyph glyph-name="Idieresis" unicode="&#xcf;" horiz-adv-x="552" 
d="M144 0v1382h267v-1382h-267zM594 1512q-40 -39 -97 -39t-96 39q-40 39 -40 96t40 96q39 39 96 39t97 -39q40 -40 40 -96q0 -57 -40 -96zM153 1512q-40 -39 -97 -39t-97 39t-40 96q0 56 40 96q40 39 97 39t97 -39q40 -40 40 -96q0 -57 -40 -96z" />
    <glyph glyph-name="Ntilde" unicode="&#xd1;" horiz-adv-x="1431" 
d="M936 0l-428 762q-88 172 -123 270q14 -211 14 -657v-375h-256v1382h352l418 -743q70 -123 133 -277q-14 244 -14 672v348h256v-1382h-352zM1101 1659q-95 -168 -256 -168q-78 0 -154 48q-75 48 -108 48q-68 0 -118 -88l-129 90q95 168 256 168q78 0 153 -48t109 -48
q66 0 118 86z" />
    <glyph glyph-name="Ograve" unicode="&#xd2;" horiz-adv-x="1439" 
d="M1173 173q-190 -196 -477 -196q-310 0 -473 188q-156 179 -156 505q0 334 199 539q190 196 477 196q310 0 472 -187q157 -180 157 -505q0 -335 -199 -540zM997 1033q-95 132 -277 132q-161 0 -262 -120q-106 -126 -106 -343q0 -227 90 -352q95 -131 276 -131
q162 0 263 119q106 126 106 344q0 226 -90 351zM843 1466l-440 109l59 188l424 -153z" />
    <glyph glyph-name="Oacute" unicode="&#xd3;" horiz-adv-x="1439" 
d="M1173 173q-190 -196 -477 -196q-310 0 -473 188q-156 179 -156 505q0 334 199 539q190 196 477 196q310 0 472 -187q157 -180 157 -505q0 -335 -199 -540zM997 1033q-95 132 -277 132q-161 0 -262 -120q-106 -126 -106 -343q0 -227 90 -352q95 -131 276 -131
q162 0 263 119q106 126 106 344q0 226 -90 351zM614 1466l-43 144l426 153l59 -188z" />
    <glyph glyph-name="Ocircumflex" unicode="&#xd4;" horiz-adv-x="1439" 
d="M1173 173q-190 -196 -477 -196q-310 0 -473 188q-156 179 -156 505q0 334 199 539q190 196 477 196q310 0 472 -187q157 -180 157 -505q0 -335 -199 -540zM997 1033q-95 132 -277 132q-161 0 -262 -120q-106 -126 -106 -343q0 -227 90 -352q95 -131 276 -131
q162 0 263 119q106 126 106 344q0 226 -90 351zM1011 1464l-285 115l-272 -113l-57 131l338 175l340 -168z" />
    <glyph glyph-name="Otilde" unicode="&#xd5;" horiz-adv-x="1439" 
d="M1173 173q-190 -196 -477 -196q-310 0 -473 188q-156 179 -156 505q0 334 199 539q190 196 477 196q310 0 472 -187q157 -180 157 -505q0 -335 -199 -540zM997 1033q-95 132 -277 132q-161 0 -262 -120q-106 -126 -106 -343q0 -227 90 -352q95 -131 276 -131
q162 0 263 119q106 126 106 344q0 226 -90 351zM1105 1659q-95 -168 -256 -168q-78 0 -154 48t-108 48q-68 0 -119 -88l-129 90q95 168 256 168q78 0 154 -48q75 -48 109 -48q66 0 118 86z" />
    <glyph glyph-name="Odieresis" unicode="&#xd6;" horiz-adv-x="1439" 
d="M1173 173q-190 -196 -477 -196q-310 0 -473 188q-156 179 -156 505q0 334 199 539q190 196 477 196q310 0 472 -187q157 -180 157 -505q0 -335 -199 -540zM997 1033q-95 132 -277 132q-161 0 -262 -120q-106 -126 -106 -343q0 -227 90 -352q95 -131 276 -131
q162 0 263 119q106 126 106 344q0 226 -90 351zM1049 1512q-40 -39 -97 -39t-96 39t-39 96t39 96t96 39t97 -39q40 -40 40 -96q0 -57 -40 -96zM608 1512q-40 -39 -97 -39t-97 39t-40 96q0 56 40 96q40 39 97 39t97 -39q41 -40 41 -96q0 -57 -41 -96z" />
    <glyph glyph-name="Oslash" unicode="&#xd8;" horiz-adv-x="1439" 
d="M1175 171q-188 -194 -481 -194q-100 0 -183 19l-92 -207l-186 84l92 205q-258 163 -258 596q0 332 199 536q190 195 477 195q86 0 168 -16l92 204l186 -82l-88 -198q271 -161 271 -606q0 -335 -197 -536zM980 1071l-362 -850q36 -10 90 -10q165 0 270 112
q119 127 119 365q0 270 -117 383zM804 1165q-41 9 -86 9q-157 0 -261 -117q-116 -129 -116 -355q0 -251 107 -372l358 835h-2z" />
    <glyph glyph-name="OE" unicode="&#x152;" horiz-adv-x="1761" 
d="M919 0q-109 -23 -223 -23q-310 0 -473 188q-156 180 -156 509q0 331 198 536q188 195 468 195q112 0 215 -23h698v-223h-483v-340h458v-217h-458v-373h483v-229h-727zM896 1139q-89 26 -176 26q-155 0 -256 -114q-112 -127 -112 -349q0 -483 362 -483q91 0 182 33v887z
" />
    <glyph glyph-name="Scaron" unicode="&#x160;" horiz-adv-x="1030" 
d="M808 105q-150 -128 -387 -128q-181 0 -320 37l29 256q142 -59 301 -59q232 0 232 180q0 86 -91 141q-24 14 -200 87q-291 119 -291 370q0 188 136 300q140 116 386 116q124 0 250 -27l-24 -233q-120 39 -238 39q-227 0 -227 -166q0 -80 92 -135q20 -12 204 -90
q295 -126 295 -369q0 -194 -147 -319zM521 1464l-340 168l64 140l282 -115l275 112l57 -129z" />
    <glyph glyph-name="Ugrave" unicode="&#xd9;" horiz-adv-x="1394" 
d="M1251 537q0 -560 -573 -560q-535 0 -535 502v903h266v-886q0 -144 58 -214q68 -83 229 -83q155 0 222 72q69 74 69 249v862h264v-845zM778 1466l-440 109l59 188l424 -153z" />
    <glyph glyph-name="Uacute" unicode="&#xda;" horiz-adv-x="1394" 
d="M1251 537q0 -560 -573 -560q-535 0 -535 502v903h266v-886q0 -144 58 -214q68 -83 229 -83q155 0 222 72q69 74 69 249v862h264v-845zM651 1466l-43 144l426 153l59 -188z" />
    <glyph glyph-name="Ucircumflex" unicode="&#xdb;" horiz-adv-x="1394" 
d="M1251 537q0 -560 -573 -560q-535 0 -535 502v903h266v-886q0 -144 58 -214q68 -83 229 -83q155 0 222 72q69 74 69 249v862h264v-845zM977 1464l-285 115l-273 -113l-57 131l338 175l340 -168z" />
    <glyph glyph-name="Udieresis" unicode="&#xdc;" horiz-adv-x="1394" 
d="M1251 537q0 -560 -573 -560q-535 0 -535 502v903h266v-886q0 -144 58 -214q68 -83 229 -83q155 0 222 72q69 74 69 249v862h264v-845zM1012 1512q-40 -39 -97 -39t-96 39t-39 96t39 96t96 39t97 -39q40 -40 40 -96q0 -57 -40 -96zM572 1512q-40 -39 -97 -39t-97 39
t-40 96q0 56 40 96q40 39 97 39t97 -39q40 -40 40 -96q0 -57 -40 -96z" />
    <glyph glyph-name="Yacute" unicode="&#xdd;" horiz-adv-x="1148" 
d="M704 489v-489h-266v487l-432 895h291l182 -397q52 -115 94 -229h4q29 80 111 256l174 370h283zM514 1466l-43 144l426 153l59 -188z" />
    <glyph glyph-name="Ydieresis" unicode="&#x178;" horiz-adv-x="1148" 
d="M704 489v-489h-266v487l-432 895h291l182 -397q52 -115 94 -229h4q29 80 111 256l174 370h283zM898 1512q-40 -39 -97 -39t-96 39q-40 39 -40 96t40 96q39 39 96 39t97 -39q40 -40 40 -96q0 -57 -40 -96zM457 1512q-40 -39 -97 -39t-97 39t-40 96q0 56 40 96q40 39 97 39
t97 -39q41 -40 41 -96q0 -57 -41 -96z" />
    <glyph glyph-name="Zcaron" unicode="&#x17d;" horiz-adv-x="1099" 
d="M92 0v205l498 811q58 89 90 131q-99 -4 -252 -4h-320v239h893v-215l-526 -829q-44 -70 -64 -96q35 4 299 4h300v-246h-918zM555 1464l-340 168l63 140l283 -115l274 112l58 -129z" />
    <glyph glyph-name="Eth" unicode="&#xd0;" horiz-adv-x="1384" 
d="M1102 180q-203 -188 -555 -188q-94 0 -385 10v604h-154v203h154v571q271 11 448 11q698 0 698 -676q0 -343 -206 -535zM588 1167q-98 0 -162 -6v-352h250v-203h-250v-377q61 -10 145 -10q206 0 324 115q127 124 127 360q0 473 -434 473z" />
    <glyph glyph-name="Thorn" unicode="&#xde;" horiz-adv-x="1114" 
d="M927 394q-158 -140 -415 -140q-70 0 -103 4v-258h-266v1382h266v-192q90 4 150 4q247 0 382 -112q140 -115 140 -334q0 -217 -154 -354zM520 977q-33 0 -111 -8v-490q47 -8 119 -8q127 0 201 66q78 68 78 194q0 246 -287 246z" />
    <glyph glyph-name="a" unicode="a" horiz-adv-x="1073" 
d="M685 0q0 105 10 172l-2 2q-83 -194 -325 -194q-135 0 -215 83q-76 80 -76 207q0 177 160 268q152 87 428 87v37q0 94 -41 135q-42 43 -141 43q-146 0 -308 -70l-43 201q174 69 385 69q227 0 323 -94q87 -84 87 -264v-420q0 -150 8 -262h-250zM665 453q-336 0 -336 -154
q0 -51 33 -84q34 -35 90 -35q92 0 154 77q59 73 59 169v27z" />
    <glyph glyph-name="b" unicode="b" horiz-adv-x="1144" 
d="M927 141q-149 -161 -407 -161q-204 0 -379 49v1466h262v-438q0 -114 -16 -199h2q83 180 307 180q181 0 279 -125q96 -124 96 -352q0 -263 -144 -420zM622 821q-99 0 -161 -100q-58 -94 -58 -227v-287q55 -19 137 -19q256 0 256 347q0 286 -174 286z" />
    <glyph glyph-name="c" unicode="c" horiz-adv-x="870" 
d="M814 29q-122 -47 -286 -47q-459 0 -459 493q0 250 127 400q137 161 391 161q122 0 223 -35l-41 -225q-95 39 -190 39q-114 0 -176 -86q-60 -82 -60 -227q0 -295 238 -295q107 0 199 41z" />
    <glyph glyph-name="d" unicode="d" horiz-adv-x="1142" 
d="M755 0q0 87 12 170h-4q-91 -193 -321 -193q-182 0 -279 130q-92 124 -92 348q0 261 143 419q146 162 396 162q69 0 129 -8v467h260v-1495h-244zM739 813q-76 16 -138 16q-256 0 -256 -346q0 -288 175 -288q99 0 161 101q58 95 58 232v285z" />
    <glyph glyph-name="e" unicode="e" horiz-adv-x="1052" 
d="M964 459h-629q0 -275 281 -275q148 0 295 60l28 -199q-177 -65 -368 -65q-502 0 -502 520q0 235 128 383q133 155 355 155q212 0 323 -125q99 -113 99 -307q0 -91 -10 -147zM714 633q6 213 -176 213q-178 0 -201 -213h377z" />
    <glyph glyph-name="f" unicode="f" horiz-adv-x="724" 
d="M747 1280q-53 18 -127 18q-166 0 -166 -194v-86h238v-203h-238v-815h-260v815h-178v203h178v84q0 409 406 409q95 0 166 -16z" />
    <glyph glyph-name="g" unicode="g" horiz-adv-x="1116" 
d="M911 -393q-158 -121 -406 -121q-205 0 -319 77q-117 79 -117 226q0 165 158 250q-101 47 -101 156q0 129 121 182q-151 82 -151 278q0 163 113 270q122 115 335 115q79 0 166 -22h346v-205h-139q51 -48 51 -129q0 -168 -109 -265q-115 -102 -327 -102q-42 0 -80 9
q-49 -22 -49 -66q0 -35 34 -48q33 -12 124 -15l157 -7q346 -12 346 -299q0 -169 -153 -284zM644 -12l-223 6q-94 -68 -94 -156q0 -70 59 -111q59 -40 158 -40q124 0 194 49q66 46 66 121q0 125 -160 131zM534 850q-87 0 -139 -51q-50 -49 -50 -127q0 -176 189 -176
q184 0 184 174q0 180 -184 180z" />
    <glyph glyph-name="h" unicode="h" horiz-adv-x="1169" 
d="M766 0v651q0 168 -127 168q-98 0 -167 -97t-69 -233v-489h-262v1495h262v-438q0 -128 -18 -207h4q99 188 334 188q303 0 303 -323v-715h-260z" />
    <glyph glyph-name="i" unicode="i" horiz-adv-x="544" 
d="M388 1216q-49 -47 -116 -47q-68 0 -115 46t-47 112t47 113t115 47t116 -46q48 -47 48 -114q0 -65 -48 -111zM141 0v1018h262v-1018h-262z" />
    <glyph glyph-name="j" unicode="j" horiz-adv-x="555" 
d="M396 1216q-48 -47 -115 -47q-68 0 -116 46t-48 112t48 113t116 47t115 -46q48 -47 48 -114q0 -65 -48 -111zM412 -76q0 -216 -87 -319q-94 -113 -309 -113q-73 0 -145 21l18 223q64 -25 121 -25q81 0 112 42q30 40 30 145v1120h260v-1094z" />
    <glyph glyph-name="k" unicode="k" horiz-adv-x="1071" 
d="M719 0l-316 504v-504h-262v1495h262v-901l297 424h320l-357 -465l383 -553h-327z" />
    <glyph glyph-name="l" unicode="l" horiz-adv-x="544" 
d="M141 0v1495h262v-1495h-262z" />
    <glyph glyph-name="m" unicode="m" horiz-adv-x="1773" 
d="M1370 0v643q0 176 -121 176q-91 0 -160 -91q-74 -97 -74 -241v-487h-258v645q0 174 -120 174q-93 0 -162 -94q-72 -98 -72 -238v-487h-262v1018h248q0 -96 -12 -182l2 -2q100 204 335 204q230 0 281 -202q97 202 332 202q305 0 305 -338v-700h-262z" />
    <glyph glyph-name="n" unicode="n" horiz-adv-x="1169" 
d="M766 0v651q0 168 -127 168q-98 0 -167 -97q-69 -96 -69 -230v-492h-262v1018h248q0 -108 -15 -182h3q104 202 346 202q303 0 303 -323v-715h-260z" />
    <glyph glyph-name="o" unicode="o" horiz-adv-x="1132" 
d="M918 134q-147 -154 -374 -154q-477 0 -477 512q0 239 144 392q146 154 376 154q225 0 348 -123q129 -131 129 -387q0 -239 -146 -394zM569 817q-96 0 -160 -71q-72 -81 -72 -228q0 -315 228 -315q101 0 163 78q66 83 66 233q0 303 -225 303z" />
    <glyph glyph-name="p" unicode="p" horiz-adv-x="1144" 
d="M935 142q-141 -156 -401 -156q-74 0 -131 8v-488h-262v1512h244q0 -104 -11 -170h5q92 190 319 190q180 0 277 -124q96 -124 96 -351q0 -270 -136 -421zM622 823q-99 0 -161 -101q-58 -96 -58 -233v-282q62 -19 137 -19q256 0 256 347q0 288 -174 288z" />
    <glyph glyph-name="q" unicode="q" horiz-adv-x="1144" 
d="M741 -494v461q0 120 14 197l-4 2q-86 -189 -301 -189q-377 0 -377 478q0 264 143 419q149 162 412 162q188 0 373 -30v-1500h-260zM741 815q-76 14 -138 14q-256 0 -256 -346q0 -288 172 -288q100 0 163 102q59 96 59 235v283z" />
    <glyph glyph-name="r" unicode="r" horiz-adv-x="727" 
d="M686 782q-283 56 -283 -366v-416h-262v1018h248q0 -97 -19 -205h4q94 247 324 225z" />
    <glyph glyph-name="s" unicode="s" horiz-adv-x="854" 
d="M650 72q-123 -92 -325 -92q-133 0 -228 26l19 219q94 -41 217 -41q164 0 164 111q0 58 -65 93q-6 3 -142 55q-207 78 -207 272q0 143 105 230q116 95 327 95q89 0 184 -20l-12 -205q-90 27 -184 27q-150 0 -150 -105q0 -55 66 -91l144 -58q210 -83 210 -271
q0 -152 -123 -245z" />
    <glyph glyph-name="t" unicode="t" horiz-adv-x="768" 
d="M704 8q-114 -28 -221 -28q-168 0 -232 70q-63 70 -63 249v516h-176v203h176v313l260 70v-383h248v-203h-248v-446q0 -98 27 -133q26 -35 94 -35t117 14z" />
    <glyph glyph-name="u" unicode="u" horiz-adv-x="1167" 
d="M780 0q0 118 12 182h-2q-105 -202 -346 -202q-303 0 -303 323v715h260v-651q0 -168 127 -168q99 0 168 97q68 95 68 230v492h262v-1018h-246z" />
    <glyph glyph-name="v" unicode="v" horiz-adv-x="1036" 
d="M672 0h-312l-350 1018h283l163 -492q45 -150 66 -254h4q26 126 62 252l159 494h277z" />
    <glyph glyph-name="w" unicode="w" horiz-adv-x="1630" 
d="M1290 0h-285l-147 451q-33 114 -58 229h-2q-25 -116 -69 -256l-129 -424h-271l-311 1018h287l108 -385q67 -253 80 -307h2q22 118 74 295l123 397h252l125 -385q61 -204 82 -307h4q24 124 69 295l117 397h268z" />
    <glyph glyph-name="x" unicode="x" horiz-adv-x="1081" 
d="M729 0l-197 342l-197 -342h-313l350 514l-330 504h314l196 -336l199 336h291l-320 -502l336 -516h-329z" />
    <glyph glyph-name="y" unicode="y" horiz-adv-x="1028" 
d="M619 -57q-97 -257 -217 -359q-112 -94 -295 -94q-75 0 -143 14l31 226q65 -21 129 -21q162 0 231 201l33 90l-377 1018h293l137 -389q45 -139 80 -281h2q34 138 98 324l121 346h281z" />
    <glyph glyph-name="z" unicode="z" horiz-adv-x="921" 
d="M92 0v186l410 600q-78 -4 -217 -4h-181v236h713v-187l-401 -593q43 2 231 2h178v-240h-733z" />
    <glyph glyph-name="agrave" unicode="&#xe0;" horiz-adv-x="1073" 
d="M685 0q0 105 10 172l-2 2q-83 -194 -325 -194q-135 0 -215 83q-76 80 -76 207q0 177 160 268q152 87 428 87v37q0 94 -41 135q-42 43 -141 43q-146 0 -308 -70l-43 201q174 69 385 69q227 0 323 -94q87 -84 87 -264v-420q0 -150 8 -262h-250zM665 453q-336 0 -336 -154
q0 -51 33 -84q34 -35 90 -35q92 0 154 77q59 73 59 169v27zM532 1141l-289 305l168 133l258 -328z" />
    <glyph glyph-name="aacute" unicode="&#xe1;" horiz-adv-x="1073" 
d="M685 0q0 105 10 172l-2 2q-83 -194 -325 -194q-135 0 -215 83q-76 80 -76 207q0 177 160 268q152 87 428 87v37q0 94 -41 135q-42 43 -141 43q-146 0 -308 -70l-43 201q174 69 385 69q227 0 323 -94q87 -84 87 -264v-420q0 -150 8 -262h-250zM665 453q-336 0 -336 -154
q0 -51 33 -84q34 -35 90 -35q92 0 154 77q59 73 59 169v27zM530 1141l-136 108l261 330l167 -131z" />
    <glyph glyph-name="acircumflex" unicode="&#xe2;" horiz-adv-x="1073" 
d="M685 0q0 105 10 172l-2 2q-83 -194 -325 -194q-135 0 -215 83q-76 80 -76 207q0 177 160 268q152 87 428 87v37q0 94 -41 135q-42 43 -141 43q-146 0 -308 -70l-43 201q174 69 385 69q227 0 323 -94q87 -84 87 -264v-420q0 -150 8 -262h-250zM665 453q-336 0 -336 -154
q0 -51 33 -84q34 -35 90 -35q92 0 154 77q59 73 59 169v27zM753 1147l-213 166l-211 -166l-100 119l313 278l313 -276z" />
    <glyph glyph-name="atilde" unicode="&#xe3;" horiz-adv-x="1073" 
d="M685 0q0 105 10 172l-2 2q-83 -194 -325 -194q-135 0 -215 83q-76 80 -76 207q0 177 160 268q152 87 428 87v37q0 94 -41 135q-42 43 -141 43q-146 0 -308 -70l-43 201q174 69 385 69q227 0 323 -94q87 -84 87 -264v-420q0 -150 8 -262h-250zM665 453q-336 0 -336 -154
q0 -51 33 -84q34 -35 90 -35q92 0 154 77q59 73 59 169v27zM908 1364q-92 -182 -247 -182q-76 0 -150 52q-73 52 -104 52q-62 0 -113 -92l-125 96q93 183 250 183q75 0 147 -53q73 -52 105 -52q62 0 113 92z" />
    <glyph glyph-name="adieresis" unicode="&#xe4;" horiz-adv-x="1073" 
d="M685 0q0 105 10 172l-2 2q-83 -194 -325 -194q-135 0 -215 83q-76 80 -76 207q0 177 160 268q152 87 428 87v37q0 94 -41 135q-42 43 -141 43q-146 0 -308 -70l-43 201q174 69 385 69q227 0 323 -94q87 -84 87 -264v-420q0 -150 8 -262h-250zM665 453q-336 0 -336 -154
q0 -51 33 -84q34 -35 90 -35q92 0 154 77q59 73 59 169v27zM847 1227q-42 -41 -100 -41q-59 0 -100 41q-42 42 -42 100q0 60 42 101q41 40 100 40q58 0 100 -40q41 -41 41 -101q0 -58 -41 -100zM433 1227q-42 -41 -100 -41t-100 41q-41 42 -41 100q0 60 41 101q41 40 100 40
t100 -40q41 -41 41 -101q0 -58 -41 -100z" />
    <glyph glyph-name="aring" unicode="&#xe5;" horiz-adv-x="1073" 
d="M685 0q0 105 10 172l-2 2q-83 -194 -325 -194q-135 0 -215 83q-76 80 -76 207q0 177 160 268q152 87 428 87v37q0 94 -41 135q-42 43 -141 43q-146 0 -308 -70l-43 201q174 69 385 69q227 0 323 -94q87 -84 87 -264v-420q0 -150 8 -262h-250zM665 453q-336 0 -336 -154
q0 -51 33 -84q34 -35 90 -35q92 0 154 77q59 73 59 169v27zM729 1190q-77 -72 -185 -72q-109 0 -184 70q-76 70 -76 178q0 106 78 179q76 71 184 71q110 0 185 -70q75 -71 75 -178q0 -105 -77 -178zM622 1443q-32 32 -76 32q-45 0 -77 -32t-32 -77t32 -77t77 -32q44 0 76 32
q30 32 30 77t-30 77z" />
    <glyph glyph-name="ae" unicode="&#xe6;" horiz-adv-x="1638" 
d="M1552 463h-631q-3 -279 280 -279q153 0 295 64l29 -201q-166 -67 -369 -67q-320 0 -409 206h-2q-113 -206 -375 -206q-137 0 -216 83q-77 79 -77 207q0 177 160 269q153 88 428 88v51q0 162 -199 162q-143 0 -287 -72l-47 207q173 65 379 65q228 0 320 -127h2
q106 127 299 127q212 0 325 -133q103 -121 103 -323q0 -58 -8 -121zM1300 639q3 97 -45 154q-48 55 -131 55q-176 0 -199 -209h375zM665 457q-338 0 -338 -158q0 -51 32 -84q33 -35 89 -35q93 0 157 77q60 73 60 169v31z" />
    <glyph glyph-name="ccedilla" unicode="&#xe7;" horiz-adv-x="870" 
d="M814 29q-122 -47 -286 -47q-459 0 -459 493q0 250 127 400q137 161 391 161q122 0 223 -35l-41 -225q-95 39 -190 39q-114 0 -176 -86q-60 -82 -60 -227q0 -295 238 -295q107 0 199 41zM569 -82q148 -202 -41 -397h-197q77 93 84 163q8 78 -63 166z" />
    <glyph glyph-name="egrave" unicode="&#xe8;" horiz-adv-x="1052" 
d="M964 459h-629q0 -275 281 -275q148 0 295 60l28 -199q-177 -65 -368 -65q-502 0 -502 520q0 235 128 383q133 155 355 155q212 0 323 -125q99 -113 99 -307q0 -91 -10 -147zM714 633q6 213 -176 213q-178 0 -201 -213h377zM534 1141l-289 305l168 133l258 -328z" />
    <glyph glyph-name="eacute" unicode="&#xe9;" horiz-adv-x="1052" 
d="M964 459h-629q0 -275 281 -275q148 0 295 60l28 -199q-177 -65 -368 -65q-502 0 -502 520q0 235 128 383q133 155 355 155q212 0 323 -125q99 -113 99 -307q0 -91 -10 -147zM714 633q6 213 -176 213q-178 0 -201 -213h377zM528 1141l-135 108l260 330l168 -131z" />
    <glyph glyph-name="ecircumflex" unicode="&#xea;" horiz-adv-x="1052" 
d="M964 459h-629q0 -275 281 -275q148 0 295 60l28 -199q-177 -65 -368 -65q-502 0 -502 520q0 235 128 383q133 155 355 155q212 0 323 -125q99 -113 99 -307q0 -91 -10 -147zM714 633q6 213 -176 213q-178 0 -201 -213h377zM757 1147l-213 166l-211 -166l-100 119l313 278
l314 -276z" />
    <glyph glyph-name="edieresis" unicode="&#xeb;" horiz-adv-x="1052" 
d="M964 459h-629q0 -275 281 -275q148 0 295 60l28 -199q-177 -65 -368 -65q-502 0 -502 520q0 235 128 383q133 155 355 155q212 0 323 -125q99 -113 99 -307q0 -91 -10 -147zM714 633q6 213 -176 213q-178 0 -201 -213h377zM851 1227q-42 -41 -100 -41t-100 41
q-41 42 -41 100q0 60 41 101q41 40 100 40t100 -40q41 -41 41 -101q0 -58 -41 -100zM437 1227q-41 -41 -100 -41q-58 0 -100 41q-41 42 -41 100q0 60 41 101q42 40 100 40q59 0 100 -40q42 -41 42 -101q0 -58 -42 -100z" />
    <glyph glyph-name="igrave" unicode="&#xec;" horiz-adv-x="544" 
d="M141 0v1018h263v-1018h-263zM285 1141l-289 305l168 133l258 -328z" />
    <glyph glyph-name="iacute" unicode="&#xed;" horiz-adv-x="544" 
d="M140 0v1018h263v-1018h-263zM255 1141l-135 108l260 330l168 -131z" />
    <glyph glyph-name="icircumflex" unicode="&#xee;" horiz-adv-x="544" 
d="M142 0v1018h262v-1018h-262zM453 1147l-180 166l-189 -166l-92 119l281 276l280 -274z" />
    <glyph glyph-name="idieresis" unicode="&#xef;" horiz-adv-x="544" 
d="M142 0v1018h262v-1018h-262zM563 1227q-41 -41 -100 -41q-58 0 -100 41q-41 42 -41 100q0 60 41 101q41 40 100 40t100 -40q42 -41 42 -101q0 -58 -42 -100zM184 1227q-41 -41 -100 -41t-100 41t-41 100q0 60 41 101q40 40 100 40q59 0 100 -40q42 -41 42 -101
q0 -58 -42 -100z" />
    <glyph glyph-name="ntilde" unicode="&#xf1;" horiz-adv-x="1169" 
d="M766 0v651q0 168 -127 168q-98 0 -167 -97q-69 -96 -69 -230v-492h-262v1018h248q0 -108 -15 -182h3q104 202 346 202q303 0 303 -323v-715h-260zM958 1364q-93 -182 -248 -182q-76 0 -149 52t-105 52q-61 0 -112 -92l-125 96q93 183 250 183q74 0 147 -53
q73 -52 105 -52q61 0 112 92z" />
    <glyph glyph-name="ograve" unicode="&#xf2;" horiz-adv-x="1132" 
d="M918 134q-147 -154 -374 -154q-477 0 -477 512q0 239 144 392q146 154 376 154q225 0 348 -123q129 -131 129 -387q0 -239 -146 -394zM569 817q-96 0 -160 -71q-72 -81 -72 -228q0 -315 228 -315q101 0 163 78q66 83 66 233q0 303 -225 303zM563 1141l-289 305l168 133
l258 -328z" />
    <glyph glyph-name="oacute" unicode="&#xf3;" horiz-adv-x="1132" 
d="M918 134q-147 -154 -374 -154q-477 0 -477 512q0 239 144 392q146 154 376 154q225 0 348 -123q129 -131 129 -387q0 -239 -146 -394zM569 817q-96 0 -160 -71q-72 -81 -72 -228q0 -315 228 -315q101 0 163 78q66 83 66 233q0 303 -225 303zM552 1141l-135 108l260 330
l168 -131z" />
    <glyph glyph-name="ocircumflex" unicode="&#xf4;" horiz-adv-x="1132" 
d="M918 134q-147 -154 -374 -154q-477 0 -477 512q0 239 144 392q146 154 376 154q225 0 348 -123q129 -131 129 -387q0 -239 -146 -394zM569 817q-96 0 -160 -71q-72 -81 -72 -228q0 -315 228 -315q101 0 163 78q66 83 66 233q0 303 -225 303zM790 1147l-213 166l-211 -166
l-100 119l313 278l313 -276z" />
    <glyph glyph-name="otilde" unicode="&#xf5;" horiz-adv-x="1132" 
d="M918 134q-147 -154 -374 -154q-477 0 -477 512q0 239 144 392q146 154 376 154q225 0 348 -123q129 -131 129 -387q0 -239 -146 -394zM569 817q-96 0 -160 -71q-72 -81 -72 -228q0 -315 228 -315q101 0 163 78q66 83 66 233q0 303 -225 303zM952 1364q-93 -182 -248 -182
q-76 0 -149 52q-74 52 -105 52q-62 0 -113 -92l-125 96q93 183 250 183q75 0 148 -53q72 -52 104 -52q62 0 113 92z" />
    <glyph glyph-name="odieresis" unicode="&#xf6;" horiz-adv-x="1132" 
d="M918 134q-147 -154 -374 -154q-477 0 -477 512q0 239 144 392q146 154 376 154q225 0 348 -123q129 -131 129 -387q0 -239 -146 -394zM569 817q-96 0 -160 -71q-72 -81 -72 -228q0 -315 228 -315q101 0 163 78q66 83 66 233q0 303 -225 303zM884 1227q-42 -41 -100 -41
q-59 0 -100 41q-42 42 -42 100q0 60 42 101q41 40 100 40t100 -40q41 -41 41 -101q0 -58 -41 -100zM470 1227q-42 -41 -100 -41t-100 41q-41 42 -41 100q0 60 41 101q41 40 100 40t100 -40q41 -41 41 -101q0 -58 -41 -100z" />
    <glyph glyph-name="oslash" unicode="&#xf8;" horiz-adv-x="1136" 
d="M925 134q-145 -154 -377 -154q-92 0 -166 20l-100 -201l-145 66l102 203q-172 123 -172 424q0 240 143 392q146 154 381 154q72 0 140 -12l92 180l143 -67l-92 -178q194 -128 194 -433q0 -241 -143 -394zM745 733l-248 -534q26 -11 72 -11q114 0 180 83q70 86 70 243
q0 155 -74 219zM618 829q-29 5 -47 5q-106 0 -174 -72q-80 -83 -80 -242q0 -139 59 -211z" />
    <glyph glyph-name="oe" unicode="&#x153;" horiz-adv-x="1761" 
d="M1673 463h-629q-3 -279 278 -279q156 0 295 64l29 -201q-166 -67 -369 -67q-258 0 -379 165q-124 -165 -356 -165q-475 0 -475 512q0 241 143 393q145 153 377 153q230 0 340 -149q121 151 326 151q213 0 326 -133q102 -120 102 -323q0 -58 -8 -121zM1421 639
q3 98 -45 154q-47 55 -131 55q-175 0 -199 -209h375zM569 817q-96 0 -160 -71q-72 -81 -72 -228q0 -315 228 -315q101 0 162 78q65 83 65 233q0 303 -223 303z" />
    <glyph glyph-name="scaron" unicode="&#x161;" horiz-adv-x="854" 
d="M650 72q-123 -92 -325 -92q-133 0 -228 26l19 219q94 -41 217 -41q164 0 164 111q0 58 -65 93q-6 3 -142 55q-207 78 -207 272q0 143 105 230q116 95 327 95q89 0 184 -20l-12 -205q-90 27 -184 27q-150 0 -150 -105q0 -55 66 -91l144 -58q210 -83 210 -271
q0 -152 -123 -245zM429 1147l-313 274l102 123l213 -168l211 168l103 -121z" />
    <glyph glyph-name="germandbls" unicode="&#xdf;" horiz-adv-x="1243" 
d="M1062 72q-117 -95 -307 -95q-137 0 -217 29l15 215q92 -41 186 -41q170 0 170 115q0 58 -57 104q-12 10 -125 79q-183 112 -183 288q0 128 116 235q116 108 116 187q0 119 -154 119q-219 0 -219 -283v-1024h-262v1012q0 256 145 384q128 113 347 113q190 0 302 -81
q113 -82 113 -224q0 -144 -119 -242q-118 -98 -118 -165q0 -57 57 -104q12 -10 127 -82q184 -117 184 -289q0 -155 -117 -250z" />
    <glyph glyph-name="ugrave" unicode="&#xf9;" horiz-adv-x="1167" 
d="M780 0q0 118 12 182h-2q-105 -202 -346 -202q-303 0 -303 323v715h260v-651q0 -168 127 -168q99 0 168 97q68 95 68 230v492h262v-1018h-246zM561 1141l-289 305l168 133l258 -328z" />
    <glyph glyph-name="uacute" unicode="&#xfa;" horiz-adv-x="1167" 
d="M780 0q0 118 12 182h-2q-105 -202 -346 -202q-303 0 -303 323v715h260v-651q0 -168 127 -168q99 0 168 97q68 95 68 230v492h262v-1018h-246zM585 1141l-135 108l260 330l168 -131z" />
    <glyph glyph-name="ucircumflex" unicode="&#xfb;" horiz-adv-x="1167" 
d="M780 0q0 118 12 182h-2q-105 -202 -346 -202q-303 0 -303 323v715h260v-651q0 -168 127 -168q99 0 168 97q68 95 68 230v492h262v-1018h-246zM794 1147l-213 166l-211 -166l-100 119l313 278l314 -276z" />
    <glyph glyph-name="udieresis" unicode="&#xfc;" horiz-adv-x="1167" 
d="M780 0q0 118 12 182h-2q-105 -202 -346 -202q-303 0 -303 323v715h260v-651q0 -168 127 -168q99 0 168 97q68 95 68 230v492h262v-1018h-246zM890 1227q-41 -41 -100 -41q-58 0 -100 41q-41 42 -41 100q0 60 41 101q41 40 100 40t100 -40q42 -41 42 -101q0 -58 -42 -100z
M476 1227q-41 -41 -99 -41q-59 0 -100 41q-42 42 -42 100q0 60 42 101q41 40 100 40q58 0 99 -40q42 -41 42 -101q0 -58 -42 -100z" />
    <glyph glyph-name="yacute" unicode="&#xfd;" horiz-adv-x="1028" 
d="M619 -57q-97 -257 -217 -359q-112 -94 -295 -94q-75 0 -143 14l31 226q65 -21 129 -21q162 0 231 201l33 90l-377 1018h293l137 -389q45 -139 80 -281h2q34 138 98 324l121 346h281zM535 1141l-135 108l260 330l168 -131z" />
    <glyph glyph-name="ydieresis" unicode="&#xff;" horiz-adv-x="1028" 
d="M619 -57q-97 -257 -217 -359q-112 -94 -295 -94q-75 0 -143 14l31 226q65 -21 129 -21q162 0 231 201l33 90l-377 1018h293l137 -389q45 -139 80 -281h2q34 138 98 324l121 346h281zM830 1227q-42 -41 -100 -41t-100 41q-41 42 -41 100q0 60 41 101q41 40 100 40t100 -40
q41 -41 41 -101q0 -58 -41 -100zM416 1227q-41 -41 -100 -41q-58 0 -100 41q-41 42 -41 100q0 60 41 101q42 40 100 40q59 0 100 -40q42 -41 42 -101q0 -58 -42 -100z" />
    <glyph glyph-name="zcaron" unicode="&#x17e;" horiz-adv-x="921" 
d="M92 0v186l410 600q-78 -4 -217 -4h-181v236h713v-187l-401 -593q43 2 231 2h178v-240h-733zM463 1147l-314 274l103 123l213 -168l211 168l102 -121z" />
    <glyph glyph-name="eth" unicode="&#xf0;" horiz-adv-x="1136" 
d="M912 125q-137 -145 -360 -145q-222 0 -349 124q-136 134 -136 388q0 242 140 393q138 149 354 149q115 0 161 -63q-11 19 -28 46l-23 38q-38 68 -108 141l-189 -84l-106 123l172 76q-60 52 -156 116l256 109q74 -55 141 -123l183 80l104 -123l-176 -76q268 -329 268 -725
q0 -286 -148 -444zM565 817q-96 0 -158 -73q-68 -82 -68 -232q0 -309 232 -309q217 0 217 329q0 285 -223 285z" />
    <glyph glyph-name="thorn" unicode="&#xfe;" horiz-adv-x="1144" 
d="M935 142q-141 -156 -401 -156q-74 0 -131 8v-488h-262v1989h262v-418q0 -132 -10 -209h4q87 170 301 170q180 0 277 -124q96 -124 96 -351q0 -270 -136 -421zM622 823q-99 0 -161 -101q-58 -96 -58 -233v-282q62 -19 137 -19q256 0 256 347q0 288 -174 288z" />
    <glyph glyph-name="ampersand" unicode="&#x26;" horiz-adv-x="1632" 
d="M1374 -47q-177 122 -281 205q-226 -181 -532 -181q-228 0 -352 121q-113 109 -113 285q0 224 260 426q-174 205 -174 365q0 143 105 237q112 100 303 100q173 0 270 -83q94 -80 94 -218q0 -205 -244 -395q174 -174 371 -328v-2q132 202 123 453h260q7 -338 -186 -594
q164 -123 268 -192zM569 1315q-57 0 -93 -36t-36 -91q0 -89 117 -225q139 119 139 229q0 123 -127 123zM510 653q-142 -121 -142 -237q0 -89 63 -150q67 -65 175 -65q161 0 295 100q-223 180 -391 352z" />
    <glyph glyph-name="grave" unicode="`" horiz-adv-x="765" 
d="M438 1141l-289 305l168 133l258 -328z" />
    <glyph glyph-name="acute" unicode="&#xb4;" horiz-adv-x="804" 
d="M356 1141l-135 108l260 330l168 -131z" />
    <glyph glyph-name="circumflex" unicode="&#x2c6;" horiz-adv-x="872" 
d="M644 1147l-213 166l-211 -166l-100 119l313 278l314 -276z" />
    <glyph glyph-name="tilde" unicode="&#x2dc;" horiz-adv-x="948" 
d="M847 1364q-92 -182 -247 -182q-77 0 -150 52t-104 52q-62 0 -113 -92l-125 96q93 183 250 183q75 0 147 -53q73 -52 105 -52q62 0 112 92z" />
    <glyph glyph-name="dieresis" unicode="&#xa8;" horiz-adv-x="1118" 
d="M847 1227q-42 -41 -100 -41t-100 41q-41 42 -41 100q0 60 41 101q41 40 100 40t100 -40q41 -41 41 -101q0 -58 -41 -100zM433 1227q-41 -41 -100 -41q-58 0 -100 41q-41 42 -41 100q0 60 41 101q42 40 100 40q59 0 100 -40q42 -41 42 -101q0 -58 -42 -100z" />
    <glyph glyph-name="macron" unicode="&#xaf;" horiz-adv-x="808" 
d="M129 1229v188h551v-188h-551z" />
    <glyph glyph-name="cedilla" unicode="&#xb8;" horiz-adv-x="819" 
d="M524 -82q147 -202 -41 -397h-197q77 93 84 163q8 78 -64 166z" />
    <glyph glyph-name="asciicircum" unicode="^" 
d="M810 690l-268 506l-256 -506l-174 92l336 600h201l350 -598z" />
    <glyph glyph-name="asciitilde" unicode="~" 
d="M1042 1159q0 -148 -83 -237q-84 -91 -226 -91q-131 0 -222 107q-90 106 -134 106q-93 0 -96 -163h-195v37q0 148 83 237q84 90 226 90q132 0 222 -107q91 -108 135 -108q93 0 96 166h194v-37z" />
    <glyph glyph-name="brokenbar" unicode="&#xa6;" horiz-adv-x="589" 
d="M186 801v753h209v-753h-209zM186 -494v775h209v-775h-209z" />
    <glyph glyph-name="backslash" unicode="\" horiz-adv-x="980" 
d="M731 -330l-717 1880h258l717 -1880h-258z" />
    <glyph glyph-name="underscore" unicode="_" 
d="M0 -504v211h1126v-211h-1126z" />
    <glyph glyph-name="quotesingle" unicode="'" horiz-adv-x="442" 
d="M319 918h-196l-33 520h262z" />
    <glyph glyph-name="quotedbl" unicode="&#x22;" horiz-adv-x="829" 
d="M704 918h-194l-33 520h262zM319 918h-196l-33 520h262z" />
    <glyph glyph-name="copyright" unicode="&#xa9;" horiz-adv-x="1560" 
d="M1273 189q-205 -205 -496 -205q-294 0 -497 204q-203 203 -203 494q0 290 205 495t495 205q291 0 496 -204t205 -494t-205 -495zM1133 1039q-147 149 -356 149q-208 0 -356 -148q-147 -147 -147 -356t147 -357q148 -149 356 -149q209 0 356 148q146 147 146 356
q0 208 -146 357zM982 362q-88 -40 -209 -40q-155 0 -243 96q-86 95 -86 258q0 161 85 261q96 112 275 112q93 0 168 -31l-29 -174q-52 35 -129 35q-153 0 -153 -199q0 -178 143 -178q83 0 143 28z" />
    <glyph glyph-name="trademark" unicode="&#x2122;" horiz-adv-x="1411" 
d="M1144 807l-36 248l-11 96l-18 -88l-68 -256h-174l-67 262l-17 82l-4 -74l-39 -270h-176l92 575h224l69 -252l17 -83l14 79l70 256h225l94 -575h-195zM385 1225v-418h-187v418h-139v157h459v-157h-133z" />
    <glyph glyph-name="registered" unicode="&#xae;" horiz-adv-x="1155" 
d="M915 752q-140 -138 -338 -138q-201 0 -340 137q-139 136 -139 334t141 336q139 138 338 138q201 0 340 -136q139 -137 139 -338q0 -195 -141 -333zM803 1313q-94 96 -226 96q-133 0 -227 -94t-94 -228q0 -132 94 -227q94 -96 227 -96q132 0 226 94t94 227t-94 228z
M624 860l-77 174h-15v-174h-123v457h191q162 0 162 -127q0 -103 -93 -129q18 -22 35 -55l68 -146h-148zM565 1223h-33v-105h23q71 0 71 56q0 49 -61 49z" />
    <glyph glyph-name="at" unicode="@" horiz-adv-x="1986" 
d="M1663 413q-133 -147 -353 -147q-109 0 -166 58q-52 53 -49 139h-6q-96 -197 -289 -197q-207 0 -207 293q0 241 117 387q127 160 362 160q142 0 250 -41l-72 -406q-33 -188 91 -188q101 0 161 86q66 95 66 277q0 198 -116 321q-134 143 -396 143q-278 0 -464 -192
q-191 -198 -191 -506q0 -553 581 -553q180 0 359 59l39 -204q-209 -70 -431 -70q-377 0 -585 202q-201 196 -201 539q0 404 264 671q260 263 643 263q351 0 550 -194q183 -180 183 -467q0 -277 -140 -433zM1101 920q-40 12 -90 12q-99 0 -161 -114q-54 -99 -54 -216
q0 -133 65 -133q63 0 121 87q66 97 101 273z" />
    <glyph glyph-name="ordfeminine" unicode="&#xaa;" horiz-adv-x="825" 
d="M499 666q0 56 8 100l-2 2q-55 -121 -207 -121q-217 0 -217 199q0 131 117 201q108 65 291 63v31q0 96 -119 96q-111 0 -226 -55l-18 176q125 45 277 45q292 0 292 -238v-325q0 -125 2 -174h-198zM101 360v203h637v-203h-637zM489 977q-211 0 -211 -103q0 -65 75 -65
q62 0 102 53q34 45 34 94v21z" />
    <glyph glyph-name="ordmasculine" unicode="&#xba;" horiz-adv-x="872" 
d="M681 754q-105 -105 -268 -105q-336 0 -336 373q0 173 108 280q103 103 261 103q342 0 342 -369q0 -174 -107 -282zM108 360v203h651v-203h-651zM433 1221q-143 0 -143 -193q0 -197 137 -197q148 0 148 201q0 189 -142 189z" />
    <glyph glyph-name="currency" unicode="&#xa4;" 
d="M854 96l-158 211q-72 -33 -151 -33q-64 0 -113 19l-141 -195l-203 144l139 174q-69 99 -69 252q0 149 80 252l-148 188l199 141l145 -198q65 26 148 26q74 0 131 -22l143 196l199 -145l-146 -182q60 -89 60 -236q0 -138 -76 -244l162 -202zM561 887q-73 0 -122 -53
q-52 -58 -52 -156q0 -213 176 -213q74 0 122 53q54 59 54 166q0 203 -178 203z" />
    <glyph glyph-name="Euro" unicode="&#x20ac;" horiz-adv-x="1212" 
d="M1157 82q-168 -105 -388 -105q-514 0 -585 474h-160v157h147v39q0 43 5 117h-152v158h170q50 238 212 363q156 120 394 120q198 0 338 -74l-61 -211q-118 68 -279 68q-257 0 -313 -266h397v-158h-422l-2 -72q0 -57 2 -84h422v-157h-401q48 -256 325 -256q145 0 281 86z
" />
    <glyph glyph-name="dollar" unicode="$" horiz-adv-x="1011" 
d="M827 133q-91 -106 -248 -141v-250h-188v235q-114 3 -248 27l19 238q119 -43 260 -43q219 0 219 153q0 74 -86 123l-188 80q-273 114 -273 350q0 137 89 236q88 99 235 127v207h186v-193q111 -3 209 -25l-17 -223q-126 35 -227 35q-205 0 -205 -137q0 -69 87 -118l190 -82
q276 -119 276 -353q0 -141 -90 -246z" />
    <glyph glyph-name="cent" unicode="&#xa2;" horiz-adv-x="929" 
d="M837 113q-90 -35 -185 -43v-209h-196v209q-183 22 -281 152q-94 125 -94 329q0 196 99 331q101 137 276 171v190h196v-176q99 -7 183 -35l-25 -221q-86 43 -197 43q-120 0 -190 -75q-72 -77 -72 -214q0 -276 258 -276q107 0 209 51z" />
    <glyph glyph-name="sterling" unicode="&#xa3;" horiz-adv-x="974" 
d="M86 0v182q180 128 180 310q0 63 -8 124h-199v201h176q-22 140 -22 207q0 383 417 383q132 0 228 -31l-45 -215q-82 31 -168 31q-168 0 -168 -168q0 -43 20 -207h277v-201h-252q4 -41 4 -100q0 -181 -137 -301q73 12 219 12h315v-227h-837z" />
    <glyph glyph-name="florin" unicode="&#x192;" horiz-adv-x="929" 
d="M473 215q-32 -304 -138 -430q-105 -123 -320 -123q-81 0 -152 19l39 227q75 -27 131 -27q83 0 120 58t54 219l49 506h-227v200h246l22 203q46 449 434 449q82 0 148 -15l-29 -215q-59 17 -127 17q-144 0 -166 -218l-20 -221h295v-200h-314z" />
    <glyph glyph-name="yen" unicode="&#xa5;" horiz-adv-x="1230" 
d="M809 633h254v-166h-318v-119h318v-170h-318v-178h-264v178h-317v170h317v119h-317v166h256l-375 749h291l182 -376q57 -117 96 -232h4q43 124 113 258l178 350h281z" />
    <glyph glyph-name="numbersign" unicode="#" horiz-adv-x="1193" 
d="M956 842l-31 -293h164v-184h-184l-37 -365h-209l39 365h-270l-39 -365h-209l39 365h-162v184h180l33 293h-164v182h182l37 358h209l-39 -358h271l39 358h208l-38 -358h161v-182h-180zM479 842l-33 -293h270l31 293h-268z" />
    <glyph glyph-name="zero" unicode="0" horiz-adv-x="1206" 
d="M968 160q-149 -178 -383 -178q-512 0 -512 694q0 350 164 546q149 179 383 179q512 0 512 -694q0 -351 -164 -547zM605 1182q-253 0 -253 -490q0 -491 247 -491q254 0 254 487q0 494 -248 494z" />
    <glyph glyph-name="one" unicode="1" horiz-adv-x="735" 
d="M314 0v1110l-237 -94l-39 250l340 116h207v-1382h-271z" />
    <glyph glyph-name="two" unicode="2" horiz-adv-x="1019" 
d="M102 0v221l207 234q297 324 297 516q0 85 -50 137q-53 55 -149 55q-126 0 -256 -78l-39 238q164 80 367 80q202 0 314 -113q104 -104 104 -274q0 -270 -326 -627l-123 -145q143 8 490 8v-252h-836z" />
    <glyph glyph-name="three" unicode="3" horiz-adv-x="968" 
d="M721 104q-157 -124 -404 -124q-138 0 -231 26l29 230q77 -29 209 -29q126 0 200 59q72 56 72 148q0 194 -293 194q-78 0 -143 -10v211q395 -11 395 209q0 164 -195 164q-109 0 -227 -58l-20 219q146 60 317 60q192 0 300 -95q101 -89 101 -237q0 -232 -221 -313l-2 -4
q126 -31 198 -118q73 -87 73 -206q0 -200 -158 -326z" />
    <glyph glyph-name="four" unicode="4" horiz-adv-x="1134" 
d="M890 303v-303h-258v303h-580l-18 209l504 870h352v-839h207v-240h-207zM636 1143h-2l-352 -608q90 4 354 4v604z" />
    <glyph glyph-name="five" unicode="5" horiz-adv-x="944" 
d="M714 116q-162 -132 -421 -132q-113 0 -205 20l27 234q74 -27 192 -27q138 0 217 64q78 63 78 167q0 209 -338 209q-79 0 -131 -8v739h682v-249l-436 2v-275q240 2 370 -102q130 -102 130 -289q0 -219 -165 -353z" />
    <glyph glyph-name="six" unicode="6" horiz-adv-x="1183" 
d="M963 114q-145 -137 -376 -137q-242 0 -369 180q-112 160 -112 423q0 397 207 617q191 204 506 204q110 0 161 -8v-236q-73 19 -165 19q-329 0 -414 -332l-16 -70l2 -2q112 113 297 113q196 0 311 -114q112 -112 112 -298q0 -222 -144 -359zM616 668q-100 0 -163 -65
q-60 -61 -60 -150q0 -117 56 -184q58 -68 161 -68q100 0 161 65q60 65 60 170q0 232 -215 232z" />
    <glyph glyph-name="seven" unicode="7" horiz-adv-x="940" 
d="M891 1157q-240 -529 -369 -1157h-293q136 618 367 1130q-156 -4 -551 -4v256h846v-225z" />
    <glyph glyph-name="eight" unicode="8" horiz-adv-x="1140" 
d="M901 76q-139 -101 -354 -101q-216 0 -340 101q-121 98 -121 264q0 201 250 356q-227 129 -227 324q0 177 136 285q133 106 345 106q195 0 316 -97q118 -95 118 -243q0 -182 -236 -342q265 -148 265 -354q0 -190 -152 -299zM710 1154q-50 46 -141 46t-144 -43
q-50 -41 -50 -110q0 -108 200 -213q181 113 181 215q0 64 -46 105zM547 592q-187 -119 -187 -227q0 -80 56 -126t155 -46q90 0 148 43q59 45 59 120q0 116 -231 236z" />
    <glyph glyph-name="nine" unicode="9" horiz-adv-x="1189" 
d="M901 196q-187 -216 -541 -216q-104 0 -184 14v237q91 -26 205 -26q304 0 381 293l26 98l-2 2q-92 -115 -284 -115t-304 116q-112 114 -112 308q0 215 142 356q142 142 364 142q252 0 381 -181q112 -158 112 -419q0 -396 -184 -609zM733 1113q-56 67 -155 67
q-98 0 -158 -65q-62 -66 -62 -173q0 -105 55 -166q56 -63 158 -63q97 0 161 68q59 62 59 143q0 121 -58 189z" />
    <glyph glyph-name="uni00B9" unicode="&#xb9;" horiz-adv-x="606" 
d="M229 733v664l-168 -62l-39 193l244 86h215v-881h-252z" />
    <glyph glyph-name="uni00B2" unicode="&#xb2;" horiz-adv-x="761" 
d="M71 733v176l147 150q185 188 185 272q0 109 -121 109q-86 0 -172 -41l-31 182q116 49 266 49q318 0 318 -250q0 -165 -170 -348l-103 -104q80 4 299 4v-199h-618z" />
    <glyph glyph-name="uni00B3" unicode="&#xb3;" horiz-adv-x="745" 
d="M554 796q-108 -79 -290 -79q-102 0 -207 22l27 164q61 -20 163 -20q166 0 166 112q0 63 -73 92q-79 31 -222 13v155q273 0 273 125q0 88 -123 88q-101 0 -176 -34l-23 157q111 39 256 39q307 0 307 -219q0 -141 -126 -199q155 -44 155 -202q0 -134 -107 -214z" />
    <glyph glyph-name="onequarter" unicode="&#xbc;" horiz-adv-x="1740" 
d="M229 733v664l-168 -62l-39 193l244 86h215v-881h-252zM221 -307l-162 110l1335 1854l160 -113zM1548 -45v-184h-221v184h-402l-16 162l301 534h338v-512h129v-184h-129zM1325 508l-205 -373q55 2 205 2v371z" />
    <glyph glyph-name="onehalf" unicode="&#xbd;" horiz-adv-x="1757" 
d="M221 -307l-162 110l1335 1854l160 -113zM229 733v664l-168 -62l-39 193l244 86h215v-881h-252zM1054 -229v176l148 149q182 186 182 273q0 108 -119 108q-86 0 -172 -41l-33 182q120 50 269 50q315 0 315 -250q0 -168 -168 -348l-102 -105q80 4 297 4v-198h-617z" />
    <glyph glyph-name="threequarters" unicode="&#xbe;" horiz-adv-x="1777" 
d="M258 -307l-160 110l1333 1854l162 -113zM554 796q-108 -79 -290 -79q-102 0 -207 22l27 164q61 -20 163 -20q166 0 166 112q0 63 -73 92q-79 31 -222 13v155q273 0 273 125q0 88 -123 88q-101 0 -176 -34l-23 157q111 39 256 39q307 0 307 -219q0 -141 -126 -199
q155 -44 155 -202q0 -134 -107 -214zM1587 -45v-184h-221v184h-404l-14 162l301 534h338v-512h127v-184h-127zM1362 508l-203 -373q53 2 203 2v371z" />
    <glyph glyph-name="plus" unicode="+" 
d="M685 500v-381h-248v381h-358v219h358v379h248v-379h361v-219h-361z" />
    <glyph glyph-name="plusminus" unicode="&#xb1;" 
d="M687 709v-375h-250v375h-358v217h358v372h250v-372h359v-217h-359zM87 0v219h950v-219h-950z" />
    <glyph glyph-name="multiply" unicode="&#xd7;" 
d="M870 141l-315 316l-316 -316l-143 144l315 315l-315 315l160 160l315 -315l316 315l143 -143l-316 -316l316 -315z" />
    <glyph glyph-name="divide" unicode="&#xf7;" 
d="M673 907q-47 -47 -113 -47t-113 47q-46 47 -46 113t46 113q47 47 113 47t113 -47t47 -113t-47 -113zM79 500v219h967v-219h-967zM673 86q-47 -47 -113 -47t-113 47q-46 47 -46 113t46 113q47 46 113 46t113 -46q47 -47 47 -113t-47 -113z" />
    <glyph glyph-name="equal" unicode="=" 
d="M108 698v211h909v-211h-909zM108 307v211h909v-211h-909z" />
    <glyph glyph-name="logicalnot" unicode="&#xac;" 
d="M769 195v305h-690v219h922v-524h-232z" />
    <glyph glyph-name="less" unicode="&#x3c;" 
d="M782 12l-653 604l651 603l172 -172l-485 -429l487 -428z" />
    <glyph glyph-name="greater" unicode="&#x3e;" 
d="M346 12l-172 172l485 428l-487 428l172 179l653 -605z" />
    <glyph glyph-name="percent" unicode="%" horiz-adv-x="1556" 
d="M1385 70q-91 -93 -229 -93q-147 0 -226 86q-77 83 -77 234q0 146 92 241q90 93 228 93q305 0 305 -316q0 -149 -93 -245zM343 -45l-164 117l1026 1353l164 -118zM609 848q-91 -94 -229 -94q-147 0 -226 86q-77 83 -77 233q0 146 92 241q92 93 230 93q303 0 303 -313
q0 -151 -93 -246zM1167 465q-115 0 -115 -158q0 -166 117 -166q47 0 78 43q32 44 32 119q0 162 -112 162zM390 1243q-49 0 -80 -42q-32 -44 -32 -118q0 -165 114 -165q49 0 81 42q32 44 32 119q0 164 -115 164z" />
    <glyph glyph-name="perthousand" unicode="&#x2030;" horiz-adv-x="2154" 
d="M582 851q-86 -89 -214 -89q-134 0 -209 79q-78 81 -78 232q0 150 91 244q86 88 214 88q287 0 287 -307q0 -153 -91 -247zM380 1241q-109 0 -109 -158q0 -157 105 -157q108 0 108 159q0 156 -104 156zM278 -41l-156 121l1063 1341l156 -121zM1294 66q-87 -89 -214 -89
q-133 0 -208 79q-78 82 -78 233q0 150 91 243q86 89 212 89q289 0 289 -308q0 -152 -92 -247zM1093 457q-109 0 -109 -158t105 -158q106 0 106 160q0 156 -102 156zM1965 66q-86 -89 -213 -89q-133 0 -208 79q-79 82 -79 233q0 150 91 243q86 89 213 89q129 0 205 -73
q83 -80 83 -235q0 -152 -92 -247zM1764 457q-108 0 -108 -158t104 -158q107 0 107 160q0 156 -103 156z" />
    <glyph glyph-name="degree" unicode="&#xb0;" horiz-adv-x="794" 
d="M599 1021q-90 -75 -218 -75q-137 0 -216 76q-79 77 -79 209q0 130 98 213q90 76 211 76q151 0 231 -85q70 -75 70 -198q0 -134 -97 -216zM476 1317q-30 39 -83 39q-49 0 -81 -34q-31 -34 -31 -89q0 -121 110 -121q111 0 111 125q0 47 -26 80z" />
    <glyph glyph-name="mu" unicode="&#xb5;" horiz-adv-x="1191" 
d="M1138 -8q-58 -10 -104 -10q-224 0 -231 196h-3q-81 -192 -290 -192q-87 0 -131 47l30 -527h-268v1512h262v-660q0 -159 125 -159q105 0 171 92q67 92 67 239v488h260v-651q0 -104 22 -137q22 -31 90 -31v-207z" />
    <glyph glyph-name="uni00A0" unicode="&#xa0;" horiz-adv-x="400" 
 />
    <glyph glyph-name="uni00AD" unicode="&#xad;" horiz-adv-x="684" 
d="M90 463v211h504v-211h-504z" />
  </font>
</defs>
</svg>
